<?xml version="1.0" standalone="no"?>
<!DOCTYPE svg PUBLIC "-//W3C//DTD SVG 1.1//EN" "http://www.w3.org/Graphics/SVG/1.1/DTD/svg11.dtd" >
<svg>
<metadata>
Created by FontForge 20090914 at Wed Oct  9 07:35:10 2019
 By www-data
Copyright (c) 2013, Eduardo Tunni (http://www.tipo.net.ar), with Reserved Font Name 'Sintony'
</metadata>
<defs>
<font id="Sintony-Bold" horiz-adv-x="580" >
  <font-face 
    font-family="Sintony"
    font-weight="700"
    font-stretch="normal"
    units-per-em="1000"
    panose-1="2 0 5 3 5 0 0 2 0 4"
    ascent="800"
    descent="-200"
    x-height="572"
    cap-height="730"
    bbox="-60 -308 1316 995"
    underline-thickness="3"
    underline-position="1"
    unicode-range="U+0020-U+FB02"
  />
<missing-glyph horiz-adv-x="275" 
 />
    <glyph glyph-name="fi" unicode="fi" horiz-adv-x="689" 
d="M293 670c-35.333 0 -53 -19.667 -53 -59v-39h108v-87h-108v-485h-134v485h-62v87h62v39c0 109.333 57.667 164 173 164c43.333 0 81.333 -6 114 -18l-33 -101c-22.667 9.33301 -45 14 -67 14zM461 572h134v-572h-134v572zM528 640c-50 0 -75 25.833 -75 77.5
s25 77.5 75 77.5c51.333 0 77 -25.833 77 -77.5s-25.667 -77.5 -77 -77.5z" />
    <glyph glyph-name="fl" unicode="fl" horiz-adv-x="689" 
d="M293 670c-35.333 0 -53 -19.667 -53 -59v-39h108v-87h-108v-485h-134v485h-62v87h62v39c0 109.333 57.667 164 173 164c43.333 0 81.333 -6 114 -18l-33 -101c-22.667 9.33301 -45 14 -67 14zM595 0h-134v752l134 18v-770z" />
    <glyph glyph-name=".notdef" horiz-adv-x="275" 
 />
    <glyph glyph-name="space" unicode=" " horiz-adv-x="275" 
 />
    <glyph glyph-name="exclam" unicode="!" horiz-adv-x="298" 
d="M198 5c-11.333 -8.66699 -27.501 -13.001 -48.501 -13.001s-37 4.33301 -48 13s-17.667 17.834 -20 27.501s-3.5 21.167 -3.5 34.5s0.666992 23.833 2 31.5s4.16602 15.834 8.49902 24.501s11.5 15.167 21.5 19.5s23 6.5 39 6.5s29.333 -2.16699 40 -6.5
s18.334 -10.833 23.001 -19.5c6.66699 -14 10 -30.167 10 -48.5s-1.16699 -32.333 -3.5 -42s-9.16602 -18.834 -20.499 -27.501zM74.999 729.999h148v-182l-34 -339h-80l-34 339v182z" />
    <glyph glyph-name="quotedbl" unicode="&#x22;" horiz-adv-x="416" 
d="M240 730h128v-66l-26 -197h-76l-26 197v66zM48 730h128v-66l-26 -197h-76l-26 197v66z" />
    <glyph glyph-name="numbersign" unicode="#" horiz-adv-x="814" 
d="M415 -76l42 232h-175l-42 -232h-135l42 232h-103l19 105h103l37 207h-103l19 105h103l43 232h135l-43 -232h175l43 232h135l-43 -232h103l-19 -105h-103l-37 -207h104l-19 -105h-104l-42 -232h-135zM338 468l-37 -207h175l37 207h-175z" />
    <glyph glyph-name="dollar" unicode="$" horiz-adv-x="630" 
d="M115 381c-30 34 -44.999 81.999 -44.999 143.999s15.833 110.833 47.5 146.5s83.167 56.5 154.5 62.5v109h91v-109c70 -6 120.167 -26 150.5 -60s45.5 -83.333 45.5 -148l-118 -9c0 38.667 -9 67.167 -27 85.5s-48.667 27.5 -92 27.5s-73.833 -8.66699 -91.5 -26
s-26.5 -44 -26.5 -80c0 -57.333 28.333 -89.666 85 -96.999l88 -12c132.667 -17.333 199 -89 199 -215s-71 -194.333 -213 -205v-108h-91v108c-74.667 5.33301 -127.667 25 -159 59s-47 83.667 -47 149l118 9c0 -38.667 9.83301 -67.834 29.5 -87.501
s53.167 -29.5 100.5 -29.5s80.666 8.83301 99.999 26.5s29 43.834 29 78.501c0 57.333 -32.667 91 -98 101l-87 14c-65.333 10 -113 32 -143 66z" />
    <glyph glyph-name="percent" unicode="%" horiz-adv-x="976" 
d="M320 -66l214 801h85l-215 -801h-84zM750 -8c-62.667 0 -105.834 18.167 -129.501 54.5s-35.5 88.166 -35.5 155.499s11.833 119.5 35.5 156.5s66.834 55.5 129.501 55.5s106 -18.5 130 -55.5s36 -89.167 36 -156.5s-12 -119.166 -36 -155.499s-67.333 -54.5 -130 -54.5z
M710 105c6.66699 -18.667 20.167 -28 40.5 -28s33.833 9.33301 40.5 28s10 51.334 10 98.001s-3.33301 79.167 -10 97.5s-20.167 27.5 -40.5 27.5s-33.833 -9.16699 -40.5 -27.5s-10 -50.833 -10 -97.5s3.33301 -79.334 10 -98.001zM199 318
c-62.667 0 -105.834 18.167 -129.501 54.5s-35.5 88.166 -35.5 155.499s11.833 119.5 35.5 156.5s66.834 55.5 129.501 55.5s106 -18.5 130 -55.5s36 -89.167 36 -156.5s-12 -119.166 -36 -155.499s-67.333 -54.5 -130 -54.5zM159 431c6.66699 -18.667 20.167 -28 40.5 -28
s33.833 9.33301 40.5 28s10 51.334 10 98.001s-3.33301 79.167 -10 97.5s-20.167 27.5 -40.5 27.5s-33.833 -9.16699 -40.5 -27.5s-10 -50.833 -10 -97.5s3.33301 -79.334 10 -98.001z" />
    <glyph glyph-name="ampersand" unicode="&#x26;" horiz-adv-x="645" 
d="M294 637c-36 0 -61.8359 -9.17188 -77.5029 -27.5049s-23.5 -44.833 -23.5 -79.5s7.66699 -62.667 23 -84s36.333 -32 63 -32h11v-93c-39.333 0 -68.666 -9.16699 -87.999 -27.5s-29 -47.666 -29 -87.999s9.83301 -69.333 29.5 -87s51.834 -26.5 96.501 -26.5
s76.5 9.66699 95.5 29s28.5 49.333 28.5 90v110h-64v93h294v-93h-112v-95c0 -44 -3.16699 -79.833 -9.5 -107.5s-18.333 -52.167 -36 -73.5s-43.167 -36.666 -76.5 -45.999s-76.666 -14 -129.999 -14c-86.667 0 -150 18.833 -190 56.5s-60 88.834 -60 153.501
c0 46.667 12.833 85.834 38.5 117.501s59.834 52.834 102.501 63.501c-35.333 12.667 -64.333 34 -87 64s-34 64.667 -34 104c0 60.667 17.833 109.167 53.5 145.5s90 54.5 163 54.5s126.333 -12 160 -36s55.167 -62.333 64.5 -115l-114 -36
c-8.66699 53.333 -39.334 80 -92.001 80z" />
    <glyph glyph-name="quotesingle" unicode="'" horiz-adv-x="224" 
d="M48 730h128v-66l-26 -197h-76l-26 197v66z" />
    <glyph glyph-name="parenleft" unicode="(" horiz-adv-x="318" 
d="M309 28v-93.999c-80.667 0 -140.334 20 -179.001 60c-39.333 40 -64.666 89.333 -75.999 148c-11.333 56 -17 113.667 -17 173s1.5 106 4.5 140s10.167 69.667 21.5 107s26.5 67.833 45.5 91.5s45.5 43.167 79.5 58.5s74.333 23 121 23v-94
c-39.333 0 -68.333 -15.167 -87 -45.5s-30.167 -63 -34.5 -98s-7 -63.5 -8 -85.5s-1.5 -47.667 -1.5 -77s0.5 -55 1.5 -77s3 -45.667 6 -71s7.5 -46.833 13.5 -64.5s13.667 -33.834 23 -48.501c18.667 -30.667 47.667 -46 87 -46z" />
    <glyph glyph-name="parenright" unicode=")" horiz-adv-x="318" 
d="M9 641v94c80.667 0 140.334 -19.667 179.001 -59c39.333 -40.667 64.666 -90 75.999 -148c11.333 -56.667 17 -114.667 17 -174s-1.5 -106 -4.5 -140s-10.167 -69.667 -21.5 -107s-26.5 -67.833 -45.5 -91.5s-45.5 -43.167 -79.5 -58.5s-74.333 -23 -121 -23v94
c39.333 0 68.333 15.167 87 45.5s30.167 63 34.5 98s7 63.5 8 85.5s1.5 47.667 1.5 77s-0.5 55 -1.5 77s-3 45.667 -6 71s-7.5 46.833 -13.5 64.5s-13.667 34.167 -23 49.5c-18.667 30 -47.667 45 -87 45z" />
    <glyph glyph-name="asterisk" unicode="*" horiz-adv-x="557" 
d="M214 779h128v-95l-44 -107h-40l-44 107v95zM24 554l36 107l91 -30l90 -67l-13 -38l-113 -3zM181 293l-97 73l56 81l95 59l32 -25l-28 -108zM473 366l-97 -73l-58 80l-29 108l33 24l95 -58zM497 661l36 -107l-91 -31l-113 2l-12 39l88 67z" />
    <glyph glyph-name="plus" unicode="+" 
d="M86 272v92h158v158h92v-158h158v-92h-158v-158h-92v158h-158z" />
    <glyph glyph-name="comma" unicode="," horiz-adv-x="226" 
d="M55 24.5c-6.66699 19.667 -10.001 35.499 -10.001 47.499s0.666992 21.667 2 29s4 15 8 23c8.66699 16.667 25.334 25 50.001 25s42.5 -4.16699 53.5 -12.5s17.5 -17.166 19.5 -26.499s3 -21.333 3 -36c0 -74 -42.333 -144.667 -127 -212l-35 41
c30.667 29.333 46 55.666 46 78.999c0 8.66699 -3.33301 22.834 -10 42.501z" />
    <glyph glyph-name="hyphen" unicode="-" horiz-adv-x="476" 
d="M62 272v92h352v-92h-352z" />
    <glyph glyph-name="period" unicode="." horiz-adv-x="234" 
d="M156.5 -1.5c-10.333 -4.33301 -24.835 -6.50293 -43.502 -6.50293s-33.5 4.33301 -44.5 13s-17.667 17.834 -20 27.501s-3.5 21.167 -3.5 34.5s0.666992 23.833 2 31.5s4.33301 15.834 9 24.501c8 17.333 28 26 60 26c33.333 0 54 -8.66699 62 -26
c7.33301 -14 11 -29.167 11 -45.5s-0.666992 -28.166 -2 -35.499s-4.16602 -15.333 -8.49902 -24s-11.666 -15.167 -21.999 -19.5z" />
    <glyph glyph-name="slash" unicode="/" horiz-adv-x="356" 
d="M-8 -106l237 881h135l-237 -881h-135z" />
    <glyph glyph-name="zero" unicode="0" horiz-adv-x="646" 
d="M323 -14c-53.333 0 -98.333 9.5 -135 28.5s-64.667 46.667 -84 83s-33 75.833 -41 118.5s-12 92.334 -12 149.001s4 106.334 12 149.001s21.667 82.167 41 118.5s47.333 64.166 84 83.499s81.667 29 135 29s98.5 -9.66699 135.5 -29s65.167 -47.166 84.5 -83.499
s33 -75.833 41 -118.5s12 -92.334 12 -149.001s-4 -106.334 -12 -149.001s-21.667 -82.167 -41 -118.5s-47.5 -64 -84.5 -83s-82.167 -28.5 -135.5 -28.5zM323 91c52.667 0 88.834 22.333 108.501 67s29.5 113.667 29.5 207s-9.83301 162.333 -29.5 207
s-55.834 67 -108.501 67c-36 0 -64.333 -11.333 -85 -34s-34.5 -53 -41.5 -91s-10.5 -95.667 -10.5 -173s9.66699 -138.333 29 -183s55.333 -67 108 -67z" />
    <glyph glyph-name="one" unicode="1" horiz-adv-x="646" 
d="M129 596v79c78 8.66699 136.667 27 176 55h107v-624h145v-106h-426v106h145v490h-147z" />
    <glyph glyph-name="two" unicode="2" horiz-adv-x="646" 
d="M324 744c76.667 0 135.168 -18.499 175.501 -55.499s60.5 -86.833 60.5 -149.5c0 -38 -9.16699 -73.833 -27.5 -107.5s-45.166 -69.834 -80.499 -108.501l-200 -217h319v-106h-503v96l266 289c32.667 35.333 56.167 63.833 70.5 85.5s21.5 46 21.5 73
s-9.33301 49.5 -28 67.5s-46.334 27 -83.001 27c-76.667 0 -117 -37.333 -121 -112l-117 17c11.333 134 93.666 201 246.999 201z" />
    <glyph glyph-name="three" unicode="3" horiz-adv-x="646" 
d="M307 92c88.667 0 133.002 35.333 133.002 106c0 76 -47.667 114 -143 114h-74v98h75c47.333 0 81.166 10 101.499 30s30.5 48.167 30.5 84.5s-10.5 64.333 -31.5 84s-51.5 29.5 -91.5 29.5c-74.667 0 -114 -37.667 -118 -113l-117 16c10 135.333 91.333 203 244 203
c80 0 141.333 -19.833 184 -59.5s64 -92.5 64 -158.5c0 -74 -36 -128 -108 -162c78 -31.333 117 -89.666 117 -174.999c0 -60 -23.5 -108.833 -70.5 -146.5s-110.167 -56.5 -189.5 -56.5s-139.833 15.667 -181.5 47s-65.834 79.666 -72.501 144.999l117 15
c8 -67.333 51.667 -101 131 -101z" />
    <glyph glyph-name="four" unicode="4" horiz-adv-x="646" 
d="M504 0h-131v154h-353v98l285 478h199v-470h77v-106h-77v-154zM373 260v345l-201 -345h201z" />
    <glyph glyph-name="five" unicode="5" horiz-adv-x="646" 
d="M327 91c42.667 0 74.5 11.334 95.5 34.001s31.5 53.834 31.5 93.501s-16.667 71.167 -50 94.5s-94 35 -182 35h-124l25 382h420v-106h-307l-11 -167h44c109.333 0 190 -21.333 242 -64s78 -102.334 78 -179.001c0 -64.667 -22.5 -118.834 -67.5 -162.501
s-109.833 -65.5 -194.5 -65.5c-152 0 -232.333 74 -241 222l117 10c4 -84.667 45.333 -127 124 -127z" />
    <glyph glyph-name="six" unicode="6" horiz-adv-x="646" 
d="M334 638c-50 0 -85.001 -18.501 -105.001 -55.501s-31.333 -92.833 -34 -167.5c56.667 12.667 109.334 19 158.001 19c160.667 0 241 -71.333 241 -214c0 -75.333 -21.333 -133.166 -64 -173.499s-110 -60.5 -202 -60.5c-176.667 0 -265 116 -265 348
c0 135.333 20 237.5 60 306.5s110.333 103.5 211 103.5c154 0 235.333 -70.333 244 -211l-117 -12c-4 78 -46.333 117 -127 117zM322.999 333.999c-44 0 -86.666 -5.66699 -127.999 -17c2.66699 -83.333 14.667 -141.833 36 -175.5s55.666 -50.5 102.999 -50.5
c85.333 0 128 43 128 129c0 76 -46.333 114 -139 114z" />
    <glyph glyph-name="seven" unicode="7" horiz-adv-x="646" 
d="M68 624v106h502v-92l-276 -638h-145l274 624h-355z" />
    <glyph glyph-name="eight" unicode="8" horiz-adv-x="646" 
d="M58 190c0 79.333 35.667 136.999 107 172.999c-64.667 33.333 -97 90 -97 170c0 61.333 21.833 111.833 65.5 151.5s107 59.5 190 59.5s146.333 -19.833 190 -59.5s65.5 -90.167 65.5 -151.5c0 -73.333 -32 -127.666 -96 -162.999c70.667 -34.667 106 -94.667 106 -180
c0 -59.333 -24 -108.166 -72 -146.499s-112.5 -57.5 -193.5 -57.5s-145.5 19.167 -193.5 57.5s-72 87.166 -72 146.499zM194 192.999c0 -31.333 11 -56.668 33 -76.001s54 -29 96 -29s74.333 9.83301 97 29.5s34 46 34 79s-7.33301 59.667 -22 80s-40 33.5 -76 39.5l-68 10
c-62.667 -13.333 -94 -57.666 -94 -132.999zM232.5 609.497c-19.667 -21.667 -29.501 -49.165 -29.501 -82.498s7.16699 -59 21.5 -77s39.833 -30 76.5 -36l56 -9c28.667 7.33301 50.334 21.666 65.001 42.999s22 48.166 22 80.499s-9.83301 59.333 -29.5 81
s-50 32.5 -91 32.5s-71.333 -10.833 -91 -32.5z" />
    <glyph glyph-name="nine" unicode="9" horiz-adv-x="646" 
d="M308 91c49.333 0 84 16.832 104 50.499s31.667 89.834 35 168.501c-48.667 -12.667 -100 -19 -154 -19c-85.333 0 -147 19.667 -185 59s-57 92.333 -57 159s24.167 122.5 72.5 167.5s117.166 67.5 206.499 67.5s153.833 -30.5 193.5 -91.5s59.5 -148.5 59.5 -262.5
c0 -67.333 -4 -124.5 -12 -171.5s-22 -88.5 -42 -124.5c-39.333 -72 -112.666 -108 -219.999 -108c-156.667 0 -238.667 69.333 -246 208l116 13c4 -77.333 47 -116 129 -116zM219.5 427.499c21.667 -23 55.499 -34.501 101.499 -34.501s88 5 126 15
c-2 80 -12.167 138.333 -30.5 175s-49.666 55 -93.999 55s-78 -11.667 -101 -35s-34.5 -52.666 -34.5 -87.999s10.833 -64.5 32.5 -87.5z" />
    <glyph glyph-name="colon" unicode=":" horiz-adv-x="234" 
d="M156.5 -1.5c-10.333 -4.33301 -24.835 -6.50293 -43.502 -6.50293s-33.5 4.33301 -44.5 13s-17.667 17.834 -20 27.501s-3.5 21.167 -3.5 34.5s0.666992 23.833 2 31.5s4.33301 15.834 9 24.501c8 17.333 28 26 60 26c33.333 0 54 -8.66699 62 -26
c7.33301 -14 11 -29.167 11 -45.5s-0.666992 -28.166 -2 -35.499s-4.16602 -15.333 -8.49902 -24s-11.666 -15.167 -21.999 -19.5zM156.498 395.497c-10.333 -4.33301 -24.835 -6.50293 -43.502 -6.50293s-33.5 4.33301 -44.5 13s-17.667 17.834 -20 27.501
s-3.5 21.167 -3.5 34.5s0.666992 23.833 2 31.5s4.33301 15.834 9 24.501c8 17.333 28 26 60 26c33.333 0 54 -8.66699 62 -26c7.33301 -14 11 -29.167 11 -45.5s-0.666992 -28.166 -2 -35.499s-4.16602 -15.333 -8.49902 -24s-11.666 -15.167 -21.999 -19.5z" />
    <glyph glyph-name="semicolon" unicode=";" horiz-adv-x="226" 
d="M55 24.5c-6.66699 19.667 -10.001 35.499 -10.001 47.499s0.666992 21.667 2 29s4 15 8 23c8.66699 16.667 25.334 25 50.001 25s42.5 -4.16699 53.5 -12.5s17.5 -17.166 19.5 -26.499s3 -21.333 3 -36c0 -74 -42.333 -144.667 -127 -212l-35 41
c30.667 29.333 46 55.666 46 78.999c0 8.66699 -3.33301 22.834 -10 42.501zM152.499 395.499c-10.333 -4.33301 -24.835 -6.50293 -43.502 -6.50293s-33.5 4.33301 -44.5 13s-17.667 17.834 -20 27.501s-3.5 21.167 -3.5 34.5s0.666992 23.833 2 31.5
s4.33301 15.834 9 24.501c8 17.333 28 26 60 26c33.333 0 54 -8.66699 62 -26c7.33301 -14 11 -29.167 11 -45.5s-0.666992 -28.166 -2 -35.499s-4.16602 -15.333 -8.49902 -24s-11.666 -15.167 -21.999 -19.5z" />
    <glyph glyph-name="less" unicode="&#x3c;" 
d="M89 259v116l402 172v-102l-318 -128l318 -128v-102z" />
    <glyph glyph-name="equal" unicode="=" 
d="M86 380v92h408v-92h-408zM86 164v92h408v-92h-408z" />
    <glyph glyph-name="greater" unicode="&#x3e;" 
d="M491 375v-116l-402 -172v102l317 128l-317 128v102z" />
    <glyph glyph-name="question" unicode="?" horiz-adv-x="468" 
d="M249.5 -1.5c-10.333 -4.33301 -24.834 -6.50293 -43.501 -6.50293s-33.5 4.33301 -44.5 13s-17.667 17.834 -20 27.501s-3.5 21.167 -3.5 34.5s0.666992 23.833 2 31.5s4 15.834 8 24.501c9.33301 17.333 29.666 26 60.999 26c32.667 0 53.667 -8.66699 63 -26
c6.66699 -14 10 -29.167 10 -45.5s-0.666992 -28.166 -2 -35.499s-4.16602 -15.333 -8.49902 -24s-11.666 -15.167 -21.999 -19.5zM82.499 698.497c36.333 30.333 88.501 45.499 156.501 45.499s121.833 -20.5 161.5 -61.5s59.5 -89.333 59.5 -145
s-18.5 -101.667 -55.5 -138s-84.833 -63.166 -143.5 -80.499l-11 -110h-84l-9 156c60.667 18.667 104 41.167 130 67.5s39 56.833 39 91.5s-7.83301 63.167 -23.5 85.5s-39.5 33.5 -71.5 33.5c-58.667 0 -90.667 -29.333 -96 -88l-115 16
c5.33301 54.667 26.166 97.167 62.499 127.5z" />
    <glyph glyph-name="at" unicode="@" horiz-adv-x="1052" 
d="M534 -113c-200 0 -333.335 57.665 -400.002 172.998c-40 68.667 -60 158 -60 268c0 136.667 38 244.334 114 323.001s188 118 336 118s260.667 -35.667 338 -107s116 -170.333 116 -297c0 -74.667 -14.667 -132.334 -44 -173.001c-33.333 -44.667 -95 -67 -185 -67h-119
l-33 48c-41.333 -38.667 -86 -58 -134 -58c-102 0 -153 75 -153 225s62 225 186 225c46 0 91 -10.667 135 -32l25 32h52v-352h29c46.667 0 79 11.333 97 34s27 62 27 118c0 92.667 -25.667 167.334 -77 224.001s-134.666 85 -249.999 85c-122.667 0 -210 -32 -262 -96
c-48 -59.333 -72 -142.666 -72 -249.999c0 -44 2.5 -82.5 7.5 -115.5s14.833 -64.667 29.5 -95s34.334 -54.833 59.001 -73.5c52 -41.333 131.333 -62 238 -62h174v-95h-174zM512.998 205.998c25.333 0 49.666 11.667 72.999 35v222c-17.333 6.66699 -36.333 10 -57 10
c-35.333 0 -60.666 -11 -75.999 -33s-23 -55.333 -23 -100c0 -89.333 27.667 -134 83 -134z" />
    <glyph glyph-name="A" unicode="A" horiz-adv-x="642" 
d="M233 730h177l224 -730h-131l-62 202h-240l-61 -202h-132zM321 601l-89 -296h178z" />
    <glyph glyph-name="B" unicode="B" horiz-adv-x="625" 
d="M358 0l-264 -0.00390625v730h230c90 0 152.667 -20 188 -60c31.333 -36 47 -78.333 47 -127c0 -83.333 -35.667 -138.666 -107 -165.999c48 -13.333 83.167 -36.666 105.5 -69.999s33.5 -70.666 33.5 -111.999c0 -51.333 -15.667 -95.333 -47 -132
c-16 -19.333 -40 -34.666 -72 -45.999s-70 -17 -114 -17zM230 104.996l120 0.00195312c34.667 0 60.834 9.66699 78.501 29s26.5 45.666 26.5 78.999s-8.83301 59.666 -26.5 78.999s-43.834 29 -78.501 29h-120v-216zM230 424.998h92c32 0 56.833 8.83301 74.5 26.5
s26.5 42 26.5 73s-8.83301 55.5 -26.5 73.5s-42.5 27 -74.5 27h-92v-200z" />
    <glyph glyph-name="C" unicode="C" horiz-adv-x="626" 
d="M352 634c-62.667 0 -104.999 -20.499 -126.999 -61.499s-33 -110 -33 -207s11 -166.167 33 -207.5s64.333 -62 127 -62c48.667 0 83.167 13.333 103.5 40s31.166 65.334 32.499 116.001l110 -5c-5.33301 -86 -25.833 -151 -61.5 -195s-97.167 -66 -184.5 -66
c-114 0 -192.667 33.333 -236 100c-22 33.333 -37.5 72.166 -46.5 116.499s-13.5 98.5 -13.5 162.5s4.5 118.167 13.5 162.5s24.5 83.166 46.5 116.499c43.333 66.667 122 100 236 100c82 0 141 -18.333 177 -55s58 -90.667 66 -162l-110 -17c-4 40 -16.333 70.667 -37 92
s-52.667 32 -96 32z" />
    <glyph glyph-name="D" unicode="D" horiz-adv-x="698" 
d="M94 730l243 0.00195312c118 0 198 -36 240 -108c20.667 -34.667 35 -72.334 43 -113.001s12 -85.834 12 -135.501s-2.33301 -91.5 -7 -125.5s-13.5 -67.167 -26.5 -99.5s-30.167 -58.833 -51.5 -79.5c-47.333 -46 -117.333 -69 -210 -69h-243v730zM319 625.002h-89v-520
h89c71.333 0 119.666 25.667 144.999 77c21.333 44.667 32 105.667 32 183s-10.667 138.333 -32 183c-25.333 51.333 -73.666 77 -144.999 77z" />
    <glyph glyph-name="E" unicode="E" horiz-adv-x="560" 
d="M94 730h412v-105h-276v-202h251v-104h-251v-214h296v-105h-432v730z" />
    <glyph glyph-name="F" unicode="F" horiz-adv-x="512" 
d="M94 730h392v-105h-256v-202h223v-104h-223v-319h-136v730z" />
    <glyph glyph-name="G" unicode="G" horiz-adv-x="695" 
d="M348 96c96 0 144.665 52 145.998 156v34h-112v87h229v-373h-68l-23 73c-42.667 -58 -102.667 -87 -180 -87c-109.333 0 -184.666 34 -225.999 102c-21.333 34.667 -36.333 74 -45 118s-13 97.5 -13 160.5s4.5 116.667 13.5 161s24.5 83.166 46.5 116.499
c43.333 66.667 122 100 236 100c82 0 141 -18.333 177 -55s58 -90.667 66 -162l-110 -17c-4 40 -16.333 70.667 -37 92s-52.667 32 -96 32c-62.667 0 -105 -20.667 -127 -62s-33 -109.666 -33 -204.999s10.833 -164.333 32.5 -207s62.834 -64 123.501 -64z" />
    <glyph glyph-name="H" unicode="H" horiz-adv-x="730" 
d="M500 730h136v-730h-136v313h-270v-313h-136v730h136v-313h270v313z" />
    <glyph glyph-name="I" unicode="I" horiz-adv-x="324" 
d="M94 730h136v-730h-136v730z" />
    <glyph glyph-name="J" unicode="J" horiz-adv-x="485" 
d="M406 730v-547.001c0 -30.667 -2.16699 -56 -6.5 -76s-13.166 -40.333 -26.499 -61c-26.667 -40 -86.334 -60 -179.001 -60c-75.333 0 -126 16 -152 48c-17.333 22 -27.666 44.333 -30.999 67c-4.66699 31.333 -7 66.666 -7 105.999h118
c0 -41.333 5.33301 -70.166 16 -86.499s30.167 -24.5 58.5 -24.5s47.666 6.33301 57.999 19s15.5 35.334 15.5 68.001v547h136z" />
    <glyph glyph-name="K" unicode="K" horiz-adv-x="621" 
d="M230 319v-319h-136v730h136v-308h51l185 308h140l-220 -360l239 -370h-145l-205 319h-45z" />
    <glyph glyph-name="L" unicode="L" horiz-adv-x="483" 
d="M94 0v730h136v-625h249v-105h-385z" />
    <glyph glyph-name="M" unicode="M" horiz-adv-x="885" 
d="M592 730h190l19 -730h-134l-11 562l-163 -475h-118l-147 459l-10 -546h-134l18 730h191l143 -461z" />
    <glyph glyph-name="N" unicode="N" horiz-adv-x="757" 
d="M527 730h136v-730h-144l-289 496v-496h-136v730h144l289 -497v497z" />
    <glyph glyph-name="O" unicode="O" horiz-adv-x="709" 
d="M502.5 14.5c-40.333 -19 -87.001 -28.501 -140.001 -28.501s-97.167 6.5 -132.5 19.5s-64 30.333 -86 52s-39.667 49.167 -53 82.5c-23.333 58.667 -35 133.667 -35 225c0 56.667 4.33301 106.334 13 149.001s23.667 82 45 118c42.667 74.667 122.667 112 240 112
c133.333 0 221.333 -51.667 264 -155c23.333 -58 35 -132.667 35 -224c0 -57.333 -4.33301 -107.333 -13 -150s-23.667 -82 -45 -118s-52.166 -63.5 -92.499 -82.5zM353.999 95.999c60.667 0 103 23.667 127 71s36 113.333 36 198s-12 150.667 -36 198s-66.333 71 -127 71
c-64 0 -107.667 -26 -131 -78c-20.667 -47.333 -31 -111 -31 -191c0 -133.333 27 -216.333 81 -249c22 -13.333 49 -20 81 -20z" />
    <glyph glyph-name="P" unicode="P" horiz-adv-x="597" 
d="M346 259h-116v-259h-136v730h252c88 0 150 -24 186 -72c31.333 -43.333 47 -98 47 -164c0 -65.333 -15.667 -119.333 -47 -162c-36 -48.667 -98 -73 -186 -73zM230 364h95c78.667 0 118 43.5 118 130.5s-39.333 130.5 -118 130.5h-95v-261z" />
    <glyph glyph-name="Q" unicode="Q" horiz-adv-x="699" 
d="M63 239c-4.66699 36 -6.99902 81.665 -6.99902 136.998s4.16699 104.833 12.5 148.5s23.166 82.834 44.499 117.501s51.5 60.334 90.5 77.001s87.5 25 145.5 25s106.667 -8.5 146 -25.5s69.5 -42.667 90.5 -77s35.833 -73.333 44.5 -117s13 -104.167 13 -181.5
s-10 -144.5 -30 -201.5s-55.333 -98.5 -106 -124.5l132 -56l-54 -105l-264 131c-121.333 6 -199 56 -233 150c-12 32 -20.333 66 -25 102zM225.501 162.498c22.333 -44.333 63.666 -66.5 123.999 -66.5s101.666 22.167 123.999 66.5s33.5 111.833 33.5 202.5
s-11.167 158.167 -33.5 202.5s-63.666 66.5 -123.999 66.5s-101.666 -22.167 -123.999 -66.5s-33.5 -111.833 -33.5 -202.5s11.167 -158.167 33.5 -202.5z" />
    <glyph glyph-name="R" unicode="R" horiz-adv-x="660" 
d="M94 730l254.999 0.000976562c92.667 0 157 -24.333 193 -73c30.667 -42 46 -91.333 46 -148c0 -100.667 -39.333 -167.334 -118 -200.001c14.667 -16 27.334 -36 38.001 -60l111 -249h-145l-104 237c-9.33301 20 -19.5 33.667 -30.5 41s-27.5 11 -49.5 11h-60v-289h-136
v730zM229.999 394.001h103c40 0 69.833 11 89.5 33s29.5 49.5 29.5 82.5s-9.83301 60.5 -29.5 82.5s-49.5 33 -89.5 33h-103v-231z" />
    <glyph glyph-name="S" unicode="S" horiz-adv-x="603" 
d="M515 341c29.333 -32 44.0039 -80.002 44.0039 -144.002s-22 -115.167 -66 -153.5s-108.667 -57.5 -194 -57.5s-147 18.167 -185 54.5s-61.333 89.166 -70 158.499l109 17c4 -39.333 17.5 -69.833 40.5 -91.5s55.167 -32.5 96.5 -32.5c88.667 0 133 33.667 133 101
c0 28.667 -8.33301 50.334 -25 65.001s-48.667 28 -96 40l-57 14c-66.667 16.667 -114.334 41.334 -143.001 74.001s-43 81.5 -43 146.5s21 116.5 63 154.5s104.167 57 186.5 57s141.666 -18.167 177.999 -54.5s58.833 -89.166 67.5 -158.499l-108 -17
c-8.66699 82.667 -51.334 124 -128.001 124c-42 0 -73 -9.16699 -93 -27.5s-30 -42.5 -30 -72.5s7.66699 -52.333 23 -67s44.666 -27.667 87.999 -39l63 -17c68 -17.333 116.667 -42 146 -74z" />
    <glyph glyph-name="T" unicode="T" horiz-adv-x="515" 
d="M-2 627v103h519v-103h-191v-627h-136v627h-192z" />
    <glyph glyph-name="U" unicode="U" horiz-adv-x="703" 
d="M488 730h135.997v-489c0 -44.667 -5.66699 -83 -17 -115s-25.333 -56.833 -42 -74.5s-38 -31.667 -64 -42s-50.167 -16.833 -72.5 -19.5s-48.166 -4 -77.499 -4s-55.166 1.33301 -77.499 4s-46.5 9.16699 -72.5 19.5s-47.167 24.333 -63.5 42s-30.166 42.5 -41.499 74.5
s-17 70.333 -17 115v489h136v-479c0 -62 12 -103.167 36 -123.5s57.333 -30.5 100 -30.5c20.667 0 38 1.66699 52 5s28 10 42 20c28.667 20.667 43 63.667 43 129v479z" />
    <glyph glyph-name="V" unicode="V" horiz-adv-x="629" 
d="M402 0h-176l-216 730h136l168 -598l168 598h137z" />
    <glyph glyph-name="W" unicode="W" horiz-adv-x="907" 
d="M360 0h-197l-141 730h136l108 -595l120 595h135l119 -595l109 595h136l-141 -730h-197l-94 455z" />
    <glyph glyph-name="X" unicode="X" horiz-adv-x="622" 
d="M5 730h155l164 -253l152 253h143l-223 -364l238 -366h-155l-173 266l-157 -266h-142l228 376z" />
    <glyph glyph-name="Y" unicode="Y" horiz-adv-x="574" 
d="M355 0h-136v254l-225 476h136l157 -349l157 349h136l-225 -476v-254z" />
    <glyph glyph-name="Z" unicode="Z" horiz-adv-x="562" 
d="M42 625v105h488v-86l-345 -539h355v-105h-518v86l345 539h-325z" />
    <glyph glyph-name="bracketleft" unicode="[" horiz-adv-x="328" 
d="M72 -66v801h247v-92h-110v-617h110v-92h-247z" />
    <glyph glyph-name="backslash" unicode="\" horiz-adv-x="356" 
d="M127 775l237 -881h-135l-237 881h135z" />
    <glyph glyph-name="bracketright" unicode="]" horiz-adv-x="328" 
d="M256 735v-801h-247v92h110v617h-110v92h247z" />
    <glyph glyph-name="asciicircum" unicode="^" 
d="M232 618h116l152 -302h-102l-108 229l-108 -229h-102z" />
    <glyph glyph-name="underscore" unicode="_" horiz-adv-x="564" 
d="M62 -92v92h440v-92h-440z" />
    <glyph glyph-name="grave" unicode="`" horiz-adv-x="298" 
d="M271 692l-45 -72l-210 109l60 96z" />
    <glyph glyph-name="a" unicode="a" horiz-adv-x="597" 
d="M295 586c145.333 0 217.999 -66.333 217.999 -199v-387h-87l-38 70c-53.333 -56 -115.666 -84 -186.999 -84c-50.667 0 -89.167 14.167 -115.5 42.5s-39.5 66.333 -39.5 114s15 86.167 45 115.5s86 50 168 62l120 18v48c0 64.667 -30.667 97 -92 97
c-58 0 -92.333 -29.333 -103 -88l-104 31c25.333 106.667 97 160 215 160zM243.999 84c45.333 0 90.333 22.333 135 67v103l-96 -17c-43.333 -7.33301 -72 -19 -86 -35s-21 -34 -21 -54s6 -35.667 18 -47s28.667 -17 50 -17z" />
    <glyph glyph-name="b" unicode="b" horiz-adv-x="628" 
d="M362 -14c-60.667 0 -118.333 17.333 -173 52l-31 -38h-64v752l134 10v-204c45.333 18.667 90 28 134 28c153.333 0 230 -100 230 -300s-76.667 -300 -230 -300zM325.001 483c-32 0 -64.333 -6.66699 -97 -20v-351c28.667 -15.333 60 -23 94 -23
c90.667 0 136 65.667 136 197s-44.333 197 -133 197z" />
    <glyph glyph-name="c" unicode="c" horiz-adv-x="536" 
d="M170 286c0 -67.333 8.5 -116.998 25.5 -148.998s46.667 -48 89 -48s72.666 8.66699 90.999 26s28.166 44.666 29.499 81.999l105 -5c-4 -68 -23.833 -119.333 -59.5 -154s-94.167 -52 -175.5 -52c-95.333 0 -160.333 31 -195 93c-16.667 30 -28.167 61.333 -34.5 94
s-9.5 70.5 -9.5 113.5s3.16699 81 9.5 114s17.833 64.167 34.5 93.5c34 61.333 99 92 195 92c80.667 0 138.667 -16.5 174 -49.5s55.333 -82.167 60 -147.5l-104 -14c-1.33301 37.333 -11.166 64.666 -29.499 81.999s-48.666 26 -90.999 26s-72 -16 -89 -48
s-25.5 -81.667 -25.5 -149z" />
    <glyph glyph-name="d" unicode="d" horiz-adv-x="628" 
d="M229 -14c-128.667 0 -193.001 100 -193.001 300s78 300 234 300c44 0 87.333 -8 130 -24v190l134 10v-762h-87l-37 71c-55.333 -56.667 -115.666 -85 -180.999 -85zM281.999 89c41.333 0 80.667 21.333 118 64v310c-32.667 13.333 -64.667 20 -96 20
c-48 0 -82.333 -16.667 -103 -50s-31 -82.333 -31 -147c0 -131.333 37.333 -197 112 -197z" />
    <glyph glyph-name="e" unicode="e" horiz-adv-x="563" 
d="M292 -14c-92 0 -157.667 24.833 -197 74.5s-59 124.834 -59 225.501c0 200 84 300 252 300c96.667 0 162.667 -30 198 -90c30.667 -51.333 46 -118 46 -200v-36h-366c0.666992 -62.667 11 -106.834 31 -132.501s53 -38.5 99 -38.5c74 0 113.333 26.667 118 80l110 -4
c-10.667 -119.333 -88 -179 -232 -179zM287 483c-38 0 -65.833 -10.501 -83.5 -31.501s-29.167 -54.5 -34.5 -100.5h231c-4 44.667 -14.333 77.834 -31 99.501s-44 32.5 -82 32.5z" />
    <glyph glyph-name="f" unicode="f" horiz-adv-x="351" 
d="M293 670c-35.333 0 -53 -19.667 -53 -59v-39h108v-87h-108v-485h-134v485h-62v87h62v39c0 109.333 57.667 164 173 164c43.333 0 81.333 -6 114 -18l-33 -101c-22.667 9.33301 -45 14 -67 14z" />
    <glyph glyph-name="g" unicode="g" horiz-adv-x="578" 
d="M401 186.5c-31.333 -12.333 -68.167 -18.4971 -110.5 -18.4971s-77.5 5 -105.5 15l-28 -30c-11.333 -11.333 -17 -22.333 -17 -33c0 -16 11 -24 33 -24h213c52.667 0 94.167 -14.333 124.5 -43s45.5 -62.334 45.5 -101.001s-8 -69.334 -24 -92.001
s-39 -39.334 -69 -50.001c-50.667 -18 -115.5 -27 -194.5 -27s-139.833 9.5 -182.5 28.5s-64 51.5 -64 97.5c0 22 6.33301 41.833 19 59.5s28.334 31.167 47.001 40.5c-40.667 12.667 -61 42.334 -61 89.001c0 30.667 12 59 36 85l46 48c-31.333 36 -47 84.667 -47 146
c0 54 14.667 100.667 44 140c33.333 46 94 69 182 69c38 0 71 -4.66699 99 -14h167v-79h-66c18 -32.667 27 -66.834 27 -102.501s-3.33301 -64.834 -10 -87.501s-17.834 -44.667 -33.501 -66s-39.167 -38.166 -70.5 -50.499zM189.999 377.003c0 -80 32.833 -120 98.5 -120
s98.5 40 98.5 120s-32.833 120 -98.5 120s-98.5 -40 -98.5 -120zM176.499 -106.997c21.667 -6.66699 57.5 -9.99902 107.5 -9.99902s85.5 3.83301 106.5 11.5s31.5 24.167 31.5 49.5c0 37.333 -26 56 -78 56h-171c-19.333 -17.333 -29 -37.833 -29 -61.5
s10.833 -38.834 32.5 -45.501z" />
    <glyph glyph-name="h" unicode="h" horiz-adv-x="663" 
d="M228 537c54.667 32.667 112.168 49 172.501 49s105.166 -16.167 134.499 -48.5s44 -76.833 44 -133.5v-404h-134v390c0 34 -6.16699 58 -18.5 72s-33.833 21 -64.5 21c-48 0 -92.667 -15 -134 -45v-438h-134v752l134 10v-225z" />
    <glyph glyph-name="i" unicode="i" horiz-adv-x="322" 
d="M94 572h134v-572h-134v572zM161 640c-50 0 -75 25.833 -75 77.5s25 77.5 75 77.5c51.333 0 77 -25.833 77 -77.5s-25.667 -77.5 -77 -77.5z" />
    <glyph glyph-name="j" unicode="j" horiz-adv-x="322" 
d="M41 -104c35.333 0 53 19.667 53 59v617h134v-617c0 -109.333 -57.667 -164 -173 -164c-42.667 0 -81 5.66699 -115 17l33 101c22 -8.66699 44.667 -13 68 -13zM161 640c-50 0 -75 25.833 -75 77.5s25 77.5 75 77.5c51.333 0 77 -25.833 77 -77.5s-25.667 -77.5 -77 -77.5
z" />
    <glyph glyph-name="k" unicode="k" horiz-adv-x="575" 
d="M228 0h-134v752l134 10v-408h41l151 218h145l-192 -272l210 -300h-145l-182 264h-28v-264z" />
    <glyph glyph-name="l" unicode="l" horiz-adv-x="322" 
d="M228 0h-134v752l134 18v-770z" />
    <glyph glyph-name="m" unicode="m" horiz-adv-x="998" 
d="M371 586c80 0 136 -23 168 -69c57.333 46 118.5 69 183.5 69s113.167 -16.167 144.5 -48.5s47 -76.833 47 -133.5v-404h-134v382c0 34.667 -6.33301 60.167 -19 76.5s-35 24.5 -67 24.5c-45.333 0 -87 -15.667 -125 -47c1.33301 -13.333 2 -24 2 -32v-404h-134v382
c0 34.667 -6.66699 60.167 -20 76.5s-38.833 24.5 -76.5 24.5s-75.167 -13.333 -112.5 -40v-443h-134v572h71l35 -47c54 40.667 111 61 171 61z" />
    <glyph glyph-name="n" unicode="n" horiz-adv-x="663" 
d="M200 520c62.667 44 126.833 66 192.5 66s113.167 -16.167 142.5 -48.5s44 -76.833 44 -133.5v-404h-134v390c0 34 -6.16699 58 -18.5 72s-33.833 21 -64.5 21c-48 0 -92.667 -15 -134 -45v-438h-134v572h63z" />
    <glyph glyph-name="o" unicode="o" horiz-adv-x="592" 
d="M296 89c49.333 0 82.666 16.667 99.999 50s26 82.333 26 147s-8.66699 113.667 -26 147s-50.666 50 -99.999 50s-82.666 -16.667 -99.999 -50s-26 -82.333 -26 -147s8.66699 -113.667 26 -147s50.666 -50 99.999 -50zM296 -14c-173.333 0 -260 100 -260 300
s86.667 300 260 300s260 -100 260 -300s-86.667 -300 -260 -300z" />
    <glyph glyph-name="p" unicode="p" horiz-adv-x="628" 
d="M362 586c153.333 0 230 -100 230 -300s-78 -300 -234 -300c-40 0 -83.333 6.66699 -130 20v-211l-134 -18v795h64l35 -43c56.667 38 113 57 169 57zM325 483c-34 0 -66.333 -9.33301 -97 -28v-352c31.333 -9.33301 63.333 -14 96 -14c48 0 82.333 16.833 103 50.5
s31 82.5 31 146.5c0 131.333 -44.333 197 -133 197z" />
    <glyph glyph-name="q" unicode="q" horiz-adv-x="628" 
d="M269 586c62.667 0 119.333 -17.333 170 -52l32 38h63v-777l-134 -18v235c-47.333 -17.333 -91 -26 -131 -26c-155.333 0 -233 100 -233 300s77.667 300 233 300zM304.999 89c32.667 0 64.333 6 95 18v352c-29.333 16 -61 24 -95 24c-90 0 -135 -65.667 -135 -197
s45 -197 135 -197z" />
    <glyph glyph-name="r" unicode="r" horiz-adv-x="407" 
d="M228 0l-134 0.000976562v572h63l53 -89c46 65.333 111 99.666 195 102.999v-115c-78.667 -2 -137.667 -26 -177 -72v-399z" />
    <glyph glyph-name="s" unicode="s" horiz-adv-x="546" 
d="M503 160c0 -114 -80 -170.999 -240 -170.999c-70 0 -122 15.167 -156 45.5s-55.333 74.5 -64 132.5l104 16c7.33301 -64 47.166 -96 119.499 -96s108.5 22.667 108.5 68c0 18.667 -7.16699 32.667 -21.5 42s-43.166 19 -86.499 29l-46 11
c-59.333 14 -101.833 34.5 -127.5 61.5s-38.5 66.167 -38.5 117.5c0 113.333 77.333 170 232 170c66.667 0 116.5 -15.167 149.5 -45.5s53.5 -74.5 61.5 -132.5l-104 -15c-7.33301 63.333 -44.166 95 -110.499 95s-99.5 -22.667 -99.5 -68
c0 -18.667 6.5 -32.834 19.5 -42.501s39.5 -19.167 79.5 -28.5l52 -13c59.333 -14.667 102.166 -35.167 128.499 -61.5s39.5 -64.5 39.5 -114.5z" />
    <glyph glyph-name="t" unicode="t" horiz-adv-x="360" 
d="M9 485l0.00195312 86.999h92v104l134 34v-138h109v-87h-109v-323c0 -28.667 4.16699 -49 12.5 -61s20.666 -18 36.999 -18s34.166 2.66699 53.499 8l17 -83c-39.333 -14.667 -74.5 -22 -105.5 -22s-55.833 3.66699 -74.5 11s-32.667 15.833 -42 25.5
s-16.333 22.834 -21 39.501c-7.33301 23.333 -11 52.333 -11 87v336h-92z" />
    <glyph glyph-name="u" unicode="u" horiz-adv-x="664" 
d="M260 -14c-117.333 0 -176 60.667 -176 182v404h134v-382c0 -34.667 6.83301 -60.167 20.5 -76.5s36.5 -24.5 68.5 -24.5c45.333 0 88.333 21.333 129 64v419h134v-572h-87l-38 69c-52 -55.333 -113.667 -83 -185 -83z" />
    <glyph glyph-name="v" unicode="v" horiz-adv-x="545" 
d="M347 0h-149l-194 572h135l133 -414l134 414h135z" />
    <glyph glyph-name="w" unicode="w" horiz-adv-x="758" 
d="M282 0h-126l-147 572h135l84 -392l94 342h113l94 -342l85 392h135l-146 -572h-127l-97 346z" />
    <glyph glyph-name="x" unicode="x" horiz-adv-x="530" 
d="M137 0h-135l193 287l-184 285h147l112 -174l114 174h135l-182 -278l191 -294h-147l-120 184z" />
    <glyph glyph-name="y" unicode="y" horiz-adv-x="542" 
d="M251 -237l-119 18l81 211l-209 580h135l137 -398l124 398h137z" />
    <glyph glyph-name="z" unicode="z" horiz-adv-x="509" 
d="M43 478v94h424v-82l-274 -396h283v-94h-443v82l276 396h-266z" />
    <glyph glyph-name="braceleft" unicode="{" horiz-adv-x="329" 
d="M209 512l8 -108c0 -18.667 -4.83301 -33.5 -14.5 -44.5s-21.167 -16.5 -34.5 -16.5v-5c13.333 0 24.833 -5.66699 34.5 -17s14.5 -26 14.5 -44l-8 -113c0 -90.667 37 -136 111 -136v-94c-87.333 0 -150.666 18.5 -189.999 55.5s-59 86.167 -59 147.5l8 113
c0 16 -7.33301 27.333 -22 34s-29.667 10 -45 10v82c15.333 0 30.333 3.33301 45 10s22 18 22 34l-8 113c0 61.333 19.667 110.5 59 147.5s102.666 55.5 189.999 55.5v-94c-74 0 -111 -43.333 -111 -130z" />
    <glyph glyph-name="bar" unicode="|" horiz-adv-x="337" 
d="M96 -106v881h145v-881h-145z" />
    <glyph glyph-name="braceright" unicode="}" horiz-adv-x="329" 
d="M120 167l-6.99902 115c0 18.667 4.66699 33.667 14 45s20.666 17 33.999 17v5c-13.333 0 -24.666 5.66699 -33.999 17s-14 26.333 -14 45l7 115c0 36.667 -8.33301 65.167 -25 85.5s-45.334 30.5 -86.001 30.5v94c88 0 151.5 -18.333 190.5 -55s58.5 -86 58.5 -148
l-8 -113c0 -16 7 -27.333 21 -34s29.333 -10 46 -10v-82c-16.667 0 -32 -3.33301 -46 -10s-21 -18 -21 -34l8 -113c0 -62 -19.5 -111.333 -58.5 -148s-102.5 -55 -190.5 -55v94c74 0 111 46.333 111 139z" />
    <glyph glyph-name="asciitilde" unicode="~" 
d="M86 364c22.667 -16 49.5 -24 80.5 -24s72 7.16699 123 21.5s91.667 21.5 122 21.5s57.833 -6.33301 82.5 -19v-92c-25.333 14 -53 21 -83 21s-70.5 -7.16699 -121.5 -21.5s-91.5 -21.5 -121.5 -21.5s-57.333 7.33301 -82 22v92z" />
    <glyph glyph-name="nbspace" unicode="&#xa0;" horiz-adv-x="275" 
 />
    <glyph glyph-name="exclamdown" unicode="&#xa1;" horiz-adv-x="298" 
d="M100 573c11.333 8.66699 27.501 13.0029 48.501 13.0029s37.167 -4.33301 48.5 -13s18 -17.834 20 -27.501s3 -22.334 3 -38.001s-1 -28.334 -3 -38.001s-8.66699 -18.834 -20 -27.501s-26.166 -13 -44.499 -13s-32.833 2.16699 -43.5 6.5s-18.334 10.833 -23.001 19.5
c-6.66699 14 -10 30.167 -10 48.5s1.16699 32.333 3.5 42s9.16602 18.834 20.499 27.501zM223.001 -151.997h-147v182l34 339h79l34 -339v-182z" />
    <glyph glyph-name="cent" unicode="&#xa2;" horiz-adv-x="630" 
d="M376 -81l-90 0.000976562v121c-146 17.333 -219 124.166 -219 320.499s73 305.5 219 327.5v122h90v-119c119.333 -10.667 184.333 -84 195 -220l-106 -5c-1.33301 36 -11.833 65.333 -31.5 88s-46.5 34 -80.5 34s-61.167 -5.66699 -81.5 -17s-35.5 -28.333 -45.5 -51
c-16.667 -38.667 -25 -90.334 -25 -155.001c0 -148.667 44.833 -223 134.5 -223s135.5 35.667 137.5 107l106 -7c-10 -123.333 -77.667 -190.666 -203 -201.999v-121z" />
    <glyph glyph-name="sterling" unicode="&#xa3;" horiz-adv-x="630" 
d="M62 298v91.001h65v135c0 71.333 17.5 125.833 52.5 163.5s93.5 56.5 175.5 56.5s140.167 -18.333 174.5 -55s51.5 -92.334 51.5 -167.001l-118 -9c0 83.333 -34 125 -102 125c-37.333 0 -63 -9.5 -77 -28.5s-21 -47.5 -21 -85.5v-135h210v-91h-210v-81
c0 -28 -3.5 -50 -10.5 -66s-18.833 -31 -35.5 -45h375v-106h-525v83c40 26.667 60 64 60 112v103h-65z" />
    <glyph glyph-name="currency" unicode="&#xa4;" horiz-adv-x="630" 
d="M187 557c37.333 24 81.667 36.001 133 36.001s94 -10.333 128 -31l85 85l64 -64l-86 -86c21.333 -36.667 32 -80.5 32 -131.5s-11 -95.167 -33 -132.5l87 -86l-64 -64l-87 86c-36 -21.333 -80 -32 -132 -32s-95 11.667 -129 35l-88 -89l-64 64l92 91
c-18.667 35.333 -28 77.166 -28 125.499s9.66699 90.5 29 126.5l-93 93l64 64zM239.001 284.501c15.333 -21.667 41.5 -32.5 78.5 -32.5s64 10.833 81 32.5s25.5 48.5 25.5 80.5s-7.66699 58.833 -23 80.5s-41.5 32.5 -78.5 32.5s-64 -10.833 -81 -32.5
s-25.5 -48.5 -25.5 -80.5s7.66699 -58.833 23 -80.5z" />
    <glyph glyph-name="yen" unicode="&#xa5;" horiz-adv-x="630" 
d="M69 381v90h94l-132 259h138l146 -300l147 300h137l-132 -259h96v-90h-142l-37 -73h179v-91h-182v-217h-132v217h-180v91h177l-37 73h-140z" />
    <glyph glyph-name="brokenbar" unicode="&#xa6;" horiz-adv-x="337" 
d="M96 421v354h145v-354h-145zM96 -106v354h145v-354h-145z" />
    <glyph glyph-name="section" unicode="&#xa7;" horiz-adv-x="504" 
d="M480 217c0 -78.667 -42 -138.332 -126 -178.999c32 -42.667 48 -88.834 48 -138.501s-19.5 -92.5 -58.5 -128.5s-92.833 -62.333 -161.5 -79l-31 97c30.667 6.66699 57.834 18.167 81.501 34.5s35.5 35.333 35.5 57s-3 38.834 -9 51.501s-18 29.667 -36 51l-127 150
c-48 56.667 -72 111.667 -72 165c0 79.333 42.333 139 127 179c-32.667 45.333 -49 92.166 -49 140.499s19.667 90.5 59 126.5s93 62 161 78l31 -96c-30.667 -6.66699 -57.834 -18.167 -81.501 -34.5s-35.5 -35.333 -35.5 -57s2.5 -38.5 7.5 -50.5s14.5 -26 28.5 -42
l133 -158c50 -52 75 -107.667 75 -167zM346 197.002c0 20 -2.83203 36.333 -8.49902 49s-17.834 29.667 -36.501 51l-82 96c-40.667 -20 -61 -45.333 -61 -76c0 -19.333 2.5 -35 7.5 -47s14.5 -26 28.5 -42l90 -108c41.333 19.333 62 45 62 77z" />
    <glyph glyph-name="dieresis" unicode="&#xa8;" horiz-adv-x="372" 
d="M76 643c-15.333 0 -27.667 2 -37 6s-16 10 -20 18c-6.66699 13.333 -10 27.666 -10 42.999s0.666992 26.5 2 33.5s4 14.5 8 22.5c8 17.333 27 26 57 26c31.333 0 51 -8.66699 59 -26c6.66699 -13.333 10 -27.666 10 -42.999s-0.666992 -26.5 -2 -33.5s-4 -14.5 -8 -22.5
s-11 -14 -21 -18s-22.667 -6 -38 -6zM293.999 643c-15.333 0 -27.667 2 -37 6s-16 10 -20 18c-6.66699 13.333 -10 27.666 -10 42.999s0.666992 26.5 2 33.5s4 14.5 8 22.5c8 17.333 27 26 57 26c31.333 0 51 -8.66699 59 -26c6.66699 -13.333 10 -27.666 10 -42.999
s-0.666992 -26.5 -2 -33.5s-4 -14.5 -8 -22.5s-11 -14 -21 -18s-22.667 -6 -38 -6z" />
    <glyph glyph-name="copyright" unicode="&#xa9;" horiz-adv-x="735" 
d="M360 711c-54 0 -80.999 -50 -80.999 -150s27.333 -150 82 -150c48.667 0 74 29.667 76 89l66 -3c-5.33301 -96.667 -53.333 -145 -144 -145c-58 0 -98.5 17.333 -121.5 52s-34.5 86.667 -34.5 156s12 121.5 36 156.5s63.667 52.5 119 52.5c88 0 136 -42.333 144 -127
l-67 -5c-2 25.333 -8.83301 44 -20.5 56s-29.834 18 -54.501 18zM131.001 324.5c-54 54.333 -81.001 133.001 -81.001 236.001s27.167 181.667 81.5 236s133 81.5 236 81.5s181.667 -27.333 236 -82s81.5 -133.334 81.5 -236.001s-27.167 -181.167 -81.5 -235.5
s-133.166 -81.5 -236.499 -81.5s-182 27.167 -236 81.5zM122 560.501c0 -167 81.833 -250.5 245.5 -250.5s245.5 83.5 245.5 250.5s-81.833 250.5 -245.5 250.5s-245.5 -83.5 -245.5 -250.5z" />
    <glyph glyph-name="ordfeminine" unicode="&#xaa;" horiz-adv-x="444" 
d="M221 760c107.333 0 160.999 -46.335 160.999 -139.002v-271h-78l-35 39c-34 -32.667 -70.833 -49 -110.5 -49s-69.5 10.333 -89.5 31s-30 48.334 -30 83.001s10.833 62.667 32.5 84s62.5 36.333 122.5 45l67 9v28c0 32.667 -16.167 49 -48.5 49s-51.166 -17 -56.499 -51
l-93 28c10 38.667 27.333 67.334 52 86.001s60 28 106 28zM154.999 459.998c0 -22 12 -33 36 -33s47.333 9.66699 70 29v64l-42 -8c-42.667 -8 -64 -25.333 -64 -52zM31.999 203.998v77h357v-77h-357z" />
    <glyph glyph-name="guillemotleft" unicode="&#xab;" horiz-adv-x="536" 
d="M267 466l-114 -151l114 -151l-65 -64l-180 191v48l180 191zM498 466l-114 -151l114 -151l-65 -64l-180 191v48l180 191z" />
    <glyph glyph-name="logicalnot" unicode="&#xac;" 
d="M86 272v92h408v-230h-88v138h-320z" />
    <glyph glyph-name="registered" unicode="&#xae;" horiz-adv-x="735" 
d="M131 324.5c-54 54.333 -81.001 133.001 -81.001 236.001s27.167 181.667 81.5 236s133 81.5 236 81.5s181.667 -27.333 236 -82s81.5 -133.334 81.5 -236.001s-27.167 -181.167 -81.5 -235.5s-133.166 -81.5 -236.499 -81.5s-182 27.167 -236 81.5zM121.999 560.501
c0 -167 81.833 -250.5 245.5 -250.5s245.5 83.5 245.5 250.5s-81.833 250.5 -245.5 250.5s-245.5 -83.5 -245.5 -250.5zM241.999 762.001l131 0.00195312c56.667 0 93.667 -14 111 -42c14 -22.667 21 -48.334 21 -77.001c0 -63.333 -21.667 -101.333 -65 -114
c9.33301 -8.66699 17.333 -20.334 24 -35.001l58 -134h-80l-56 130c-7.33301 18 -19.333 27 -36 27h-32v-157h-76v402zM317.999 574.003h54c38 0 57 21.667 57 65s-19 65 -57 65h-54v-130z" />
    <glyph glyph-name="macron" unicode="&#xaf;" horiz-adv-x="354" 
d="M42 670v97h270v-97h-270z" />
    <glyph glyph-name="degree" unicode="&#xb0;" horiz-adv-x="409" 
d="M204 431c28.667 0 47 7 55 21s12 38.333 12 73s-4 59.167 -12 73.5s-26.333 21.5 -55 21.5s-46.834 -7.16699 -54.501 -21.5s-11.5 -38.833 -11.5 -73.5s3.83301 -59 11.5 -73s25.834 -21 54.501 -21zM284.5 350.5c-22.333 -7 -50.999 -10.5 -85.999 -10.5
s-65 4.83301 -90 14.5s-43.167 24.167 -54.5 43.5s-18.833 38.333 -22.5 57s-5.5 42 -5.5 70s1.83301 51.5 5.5 70.5s11.167 38 22.5 57s29.5 33.333 54.5 43s56.833 14.5 95.5 14.5s70.667 -4.83301 96 -14.5s43.666 -24 54.999 -43s18.833 -38 22.5 -57s5.5 -41 5.5 -66
s-1 -45.333 -3 -61s-6.5 -32.167 -13.5 -49.5s-16.833 -31.333 -29.5 -42s-30.167 -19.5 -52.5 -26.5z" />
    <glyph glyph-name="plusminus" unicode="&#xb1;" 
d="M86 322v92h158v158h92v-158h158v-92h-158v-158h-92v158h-158zM86 0v92h408v-92h-408z" />
    <glyph glyph-name="twosuperior" unicode="&#xb2;" horiz-adv-x="387" 
d="M39 633c6.66699 80.667 57.333 120.999 152 120.999c47.333 0 82.833 -11.167 106.5 -33.5s35.5 -51.166 35.5 -86.499s-20.333 -75.333 -61 -120l-79 -88h148v-86h-303v67l137 143c30 32 45 59.333 45 82s-13 34 -39 34c-14.667 0 -25.5 -3.33301 -32.5 -10
s-10.833 -18 -11.5 -34z" />
    <glyph glyph-name="threesuperior" unicode="&#xb3;" horiz-adv-x="387" 
d="M136 464c2 -31.333 18.999 -46.998 50.999 -46.998s48 14 48 42c0 32 -24.667 48 -74 48h-9v67h10c46.667 0 70 17.667 70 53c0 11.333 -3.66699 20.666 -11 27.999s-17.666 11 -30.999 11c-26.667 0 -41.667 -14.333 -45 -43l-99 12c2.66699 43.333 16 74 40 92
s60.167 27 108.5 27s85 -11.667 110 -35s37.5 -54.333 37.5 -93s-20 -66.667 -60 -84c44 -17.333 66 -48 66 -92c0 -31.333 -14.333 -58.833 -43 -82.5s-67 -35.5 -115 -35.5s-84.667 9.16699 -110 27.5s-39.333 49.166 -42 92.499z" />
    <glyph glyph-name="acute" unicode="&#xb4;" horiz-adv-x="298" 
d="M72 620l-45 72l195 133l60 -96z" />
    <glyph glyph-name="mu" unicode="&#xb5;" horiz-adv-x="625" 
d="M230 -227h-133.998v799h134v-443c41.333 -26.667 81.666 -40 120.999 -40s65.666 8 78.999 24s20 41.667 20 77v382h134v-404c0 -121.333 -59 -182 -177 -182c-59.333 0 -118.333 15.333 -177 46v-259z" />
    <glyph glyph-name="paragraph" unicode="&#xb6;" horiz-adv-x="513" 
d="M399 0l-136 -0.000976562v269h-44c-68 0 -119.167 19.167 -153.5 57.5s-51.5 85.833 -51.5 142.5s17.167 104.334 51.5 143.001s85.5 58 153.5 58h180v-670z" />
    <glyph glyph-name="periodcentered" unicode="&#xb7;" horiz-adv-x="234" 
d="M156.5 263.5c-10.333 -4.33301 -24.835 -6.50293 -43.502 -6.50293s-33.5 4.33301 -44.5 13s-17.667 17.834 -20 27.501s-3.5 21.167 -3.5 34.5s0.666992 23.833 2 31.5s4.33301 15.834 9 24.501c8 17.333 28 26 60 26c33.333 0 54 -8.66699 62 -26
c7.33301 -14 11 -29.167 11 -45.5s-0.666992 -28.166 -2 -35.499s-4.16602 -15.333 -8.49902 -24s-11.666 -15.167 -21.999 -19.5z" />
    <glyph glyph-name="cedilla" unicode="&#xb8;" horiz-adv-x="283" 
d="M26 -130l84.001 0.000976562c0 -24.667 10.667 -37 32 -37c9.33301 0 16.666 2.16699 21.999 6.5s8.5 8.83301 9.5 13.5s1.5 10.667 1.5 18c0 20.667 -12 33 -36 37l-53 9l9 48h44c38 0 67.167 -6.83301 87.5 -20.5s30.5 -38.834 30.5 -75.501s-8.5 -64.167 -25.5 -82.5
s-47.167 -27.5 -90.5 -27.5c-76.667 0 -115 37 -115 111z" />
    <glyph glyph-name="onesuperior" unicode="&#xb9;" horiz-adv-x="387" 
d="M67 649v66c46 4.66699 80 14.667 102 30h95v-405h-115v309h-82z" />
    <glyph glyph-name="ordmasculine" unicode="&#xba;" horiz-adv-x="409" 
d="M26 204v77h357v-77h-357zM150.5 459c9 -18.667 27 -28 54 -28s45 9.33301 54 28s13.5 49 13.5 91s-4.5 72.333 -13.5 91s-27 28 -54 28s-45 -9.33301 -54 -28s-13.5 -49 -13.5 -91s4.5 -72.333 13.5 -91zM393 550c0 -140 -62.833 -210 -188.5 -210s-188.5 70 -188.5 210
s62.833 210 188.5 210s188.5 -70 188.5 -210z" />
    <glyph glyph-name="guillemotright" unicode="&#xbb;" horiz-adv-x="536" 
d="M263 164l114 151l-114 151l65 64l180 -191v-48l-180 -191zM32 164l114 151l-114 151l65 64l180 -191v-48l-180 -191z" />
    <glyph glyph-name="onequarter" unicode="&#xbc;" horiz-adv-x="976" 
d="M865 0h-105v69h-193v78l131 258h167v-250h33v-86h-33v-69zM760 155v167l-83 -167h83zM72 635v66c46 4.66699 80 14.667 102 30h95v-405h-115v309h-82zM320 -36l214 801h85l-215 -801h-84z" />
    <glyph glyph-name="onehalf" unicode="&#xbd;" horiz-adv-x="976" 
d="M318 -36l214 801h85l-215 -801h-84zM595 293c6.66699 80.667 57.333 120.999 152 120.999c47.333 0 82.833 -11.167 106.5 -33.5s35.5 -51.166 35.5 -86.499s-20.333 -75.333 -61 -120l-79 -88h148v-86h-303v67l137 143c30 32 45 59.333 45 82s-13 34 -39 34
c-14.667 0 -25.5 -3.33301 -32.5 -10s-10.833 -18 -11.5 -34zM71.999 634.999v66c46 4.66699 80 14.667 102 30h95v-405h-115v309h-82z" />
    <glyph glyph-name="threequarters" unicode="&#xbe;" horiz-adv-x="976" 
d="M865 0h-105v69h-193v78l131 258h167v-250h33v-86h-33v-69zM760 155v167l-83 -167h83zM141 450c2 -31.333 18.999 -46.998 50.999 -46.998s48 14 48 42c0 32 -24.667 48 -74 48h-9v67h10c46.667 0 70 17.667 70 53c0 11.333 -3.66699 20.666 -11 27.999
s-17.666 11 -30.999 11c-26.667 0 -41.667 -14.333 -45 -43l-99 12c2.66699 43.333 16 74 40 92s60.167 27 108.5 27s85 -11.667 110 -35s37.5 -54.333 37.5 -93s-20 -66.667 -60 -84c44 -17.333 66 -48 66 -92c0 -31.333 -14.333 -58.833 -43 -82.5s-67 -35.5 -115 -35.5
s-84.667 9.16699 -110 27.5s-39.333 49.166 -42 92.499zM339.999 -35.998l214 801h85l-215 -801h-84z" />
    <glyph glyph-name="questiondown" unicode="&#xbf;" horiz-adv-x="468" 
d="M228.5 579.5c10.333 4.33301 24.834 6.50293 43.501 6.50293s33.5 -4.33301 44.5 -13s17.667 -17.834 20 -27.501s3.5 -21.167 3.5 -34.5s-0.666992 -23.833 -2 -31.5s-4 -15.834 -8 -24.501c-9.33301 -17.333 -29.666 -26 -60.999 -26c-32.667 0 -53.667 8.66699 -63 26
c-6.66699 14 -10 29.167 -10 45.5s0.666992 28.166 2 35.499s4.16602 15.333 8.49902 24s11.666 15.167 21.999 19.5zM395.501 -120.497c-36.333 -30.333 -88.501 -45.499 -156.501 -45.499s-121.833 20.5 -161.5 61.5s-59.5 89.333 -59.5 145s18.5 101.667 55.5 138
s84.833 63.166 143.5 80.499l11 110h84l9 -156c-60.667 -18.667 -104 -41.167 -130 -67.5s-39 -56.833 -39 -91.5s7.83301 -63.167 23.5 -85.5s39.5 -33.5 71.5 -33.5c58.667 0 90.667 29.333 96 88l115 -16c-5.33301 -54.667 -26.166 -97.167 -62.499 -127.5z" />
    <glyph glyph-name="Agrave" unicode="&#xc0;" horiz-adv-x="642" 
d="M233 730h177l224 -730h-131l-62 202h-240l-61 -202h-132zM321 601l-89 -296h178zM454 850l-45 -72l-210 109l60 96z" />
    <glyph glyph-name="Aacute" unicode="&#xc1;" horiz-adv-x="642" 
d="M233 730h177l224 -730h-131l-62 202h-240l-61 -202h-132zM321 601l-89 -296h178zM254 778l-45 72l195 133l60 -96z" />
    <glyph glyph-name="Acircumflex" unicode="&#xc2;" horiz-adv-x="642" 
d="M233 730h177l224 -730h-131l-62 202h-240l-61 -202h-132zM321 601l-89 -296h178zM221 784l-48 48l128 147h61l128 -147l-48 -48l-111 84z" />
    <glyph glyph-name="Atilde" unicode="&#xc3;" horiz-adv-x="642" 
d="M233 730h177l224 -730h-131l-62 202h-240l-61 -202h-132zM321 601l-89 -296h178zM465.5 846c-17 -18 -35.5 -27 -55.5 -27s-45.667 6 -77 18s-52 18 -62 18c-19.333 0 -33.333 -14.667 -42 -44l-75 24c11.333 42 25.5 72 42.5 90s35.5 27 55.5 27s45.833 -6 77.5 -18
s52.5 -18 62.5 -18c19.333 0 33.333 14.667 42 44l74 -24c-11.333 -42 -25.5 -72 -42.5 -90z" />
    <glyph glyph-name="Adieresis" unicode="&#xc4;" horiz-adv-x="642" 
d="M233 730h177l224 -730h-131l-62 202h-240l-61 -202h-132zM321 601l-89 -296h178zM221 801c-15.333 0 -27.667 2 -37 6s-16 10 -20 18c-6.66699 13.333 -10 27.666 -10 42.999s0.666992 26.5 2 33.5s4 14.5 8 22.5c8 17.333 27 26 57 26c31.333 0 51 -8.66699 59 -26
c6.66699 -13.333 10 -27.666 10 -42.999s-0.666992 -26.5 -2 -33.5s-4 -14.5 -8 -22.5s-11 -14 -21 -18s-22.667 -6 -38 -6zM438.999 801c-15.333 0 -27.667 2 -37 6s-16 10 -20 18c-6.66699 13.333 -10 27.666 -10 42.999s0.666992 26.5 2 33.5s4 14.5 8 22.5
c8 17.333 27 26 57 26c31.333 0 51 -8.66699 59 -26c6.66699 -13.333 10 -27.666 10 -42.999s-0.666992 -26.5 -2 -33.5s-4 -14.5 -8 -22.5s-11 -14 -21 -18s-22.667 -6 -38 -6z" />
    <glyph glyph-name="Aring" unicode="&#xc5;" horiz-adv-x="642" 
d="M233 730h177l224 -730h-131l-62 202h-240l-61 -202h-132zM321 601l-89 -296h178zM330 834c27.333 0 41 16.333 41 49s-13.667 49 -41 49c-24.667 0 -37 -16.333 -37 -49s12.333 -49 37 -49zM330 770c-74 0 -111 37.5 -111 112.5s37 112.5 111 112.5
c43.333 0 73.333 -11.167 90 -33.5s25 -48.833 25 -79.5s-8.33301 -57 -25 -79s-46.667 -33 -90 -33z" />
    <glyph glyph-name="AE" unicode="&#xc6;" horiz-adv-x="935" 
d="M881 730v-105h-276v-222h251v-104h-251v-194h296v-105h-432v299h-203l-123 -299h-132l305 730h565zM469 625h-69l-92 -222h161v222z" />
    <glyph glyph-name="Ccedilla" unicode="&#xc7;" horiz-adv-x="626" 
d="M352 634c-62.667 0 -104.999 -20.499 -126.999 -61.499s-33 -110 -33 -207s11 -166.167 33 -207.5s64.333 -62 127 -62c48.667 0 83.167 13.333 103.5 40s31.166 65.334 32.499 116.001l110 -5c-5.33301 -86 -25.833 -151 -61.5 -195s-97.167 -66 -184.5 -66
c-114 0 -192.667 33.333 -236 100c-22 33.333 -37.5 72.166 -46.5 116.499s-13.5 98.5 -13.5 162.5s4.5 118.167 13.5 162.5s24.5 83.166 46.5 116.499c43.333 66.667 122 100 236 100c82 0 141 -18.333 177 -55s58 -90.667 66 -162l-110 -17c-4 40 -16.333 70.667 -37 92
s-52.667 32 -96 32zM212.001 -129.999l84.001 0.000976562c0 -24.667 10.667 -37 32 -37c9.33301 0 16.666 2.16699 21.999 6.5s8.5 8.83301 9.5 13.5s1.5 10.667 1.5 18c0 20.667 -12 33 -36 37l-53 9l9 48h44c38 0 67.167 -6.83301 87.5 -20.5s30.5 -38.834 30.5 -75.501
s-8.5 -64.167 -25.5 -82.5s-47.167 -27.5 -90.5 -27.5c-76.667 0 -115 37 -115 111z" />
    <glyph glyph-name="Egrave" unicode="&#xc8;" horiz-adv-x="560" 
d="M94 730h412v-105h-276v-202h251v-104h-251v-214h296v-105h-432v730zM437 850l-45 -72l-210 109l60 96z" />
    <glyph glyph-name="Eacute" unicode="&#xc9;" horiz-adv-x="560" 
d="M94 730h412v-105h-276v-202h251v-104h-251v-214h296v-105h-432v730zM245 778l-45 72l195 133l60 -96z" />
    <glyph glyph-name="Ecircumflex" unicode="&#xca;" horiz-adv-x="560" 
d="M94 730h412v-105h-276v-202h251v-104h-251v-214h296v-105h-432v730zM204 784l-48 48l128 147h61l128 -147l-48 -48l-111 84z" />
    <glyph glyph-name="Edieresis" unicode="&#xcb;" horiz-adv-x="560" 
d="M94 730h412v-105h-276v-202h251v-104h-251v-214h296v-105h-432v730zM204 801c-15.333 0 -27.667 2 -37 6s-16 10 -20 18c-6.66699 13.333 -10 27.666 -10 42.999s0.666992 26.5 2 33.5s4 14.5 8 22.5c8 17.333 27 26 57 26c31.333 0 51 -8.66699 59 -26
c6.66699 -13.333 10 -27.666 10 -42.999s-0.666992 -26.5 -2 -33.5s-4 -14.5 -8 -22.5s-11 -14 -21 -18s-22.667 -6 -38 -6zM421.999 801c-15.333 0 -27.667 2 -37 6s-16 10 -20 18c-6.66699 13.333 -10 27.666 -10 42.999s0.666992 26.5 2 33.5s4 14.5 8 22.5
c8 17.333 27 26 57 26c31.333 0 51 -8.66699 59 -26c6.66699 -13.333 10 -27.666 10 -42.999s-0.666992 -26.5 -2 -33.5s-4 -14.5 -8 -22.5s-11 -14 -21 -18s-22.667 -6 -38 -6z" />
    <glyph glyph-name="Igrave" unicode="&#xcc;" horiz-adv-x="324" 
d="M94 730h136v-730h-136v730zM285 850l-45 -72l-210 109l60 96z" />
    <glyph glyph-name="Iacute" unicode="&#xcd;" horiz-adv-x="324" 
d="M94 730h136v-730h-136v730zM105 778l-45 72l195 133l60 -96z" />
    <glyph glyph-name="Icircumflex" unicode="&#xce;" horiz-adv-x="324" 
d="M94 730h136v-730h-136v730zM52 784l-48 48l128 147h61l128 -147l-48 -48l-111 84z" />
    <glyph glyph-name="Idieresis" unicode="&#xcf;" horiz-adv-x="324" 
d="M94 730h136v-730h-136v730zM52 801c-15.333 0 -27.667 2 -37 6s-16 10 -20 18c-6.66699 13.333 -10 27.666 -10 42.999s0.666992 26.5 2 33.5s4 14.5 8 22.5c8 17.333 27 26 57 26c31.333 0 51 -8.66699 59 -26c6.66699 -13.333 10 -27.666 10 -42.999
s-0.666992 -26.5 -2 -33.5s-4 -14.5 -8 -22.5s-11 -14 -21 -18s-22.667 -6 -38 -6zM269.999 801c-15.333 0 -27.667 2 -37 6s-16 10 -20 18c-6.66699 13.333 -10 27.666 -10 42.999s0.666992 26.5 2 33.5s4 14.5 8 22.5c8 17.333 27 26 57 26c31.333 0 51 -8.66699 59 -26
c6.66699 -13.333 10 -27.666 10 -42.999s-0.666992 -26.5 -2 -33.5s-4 -14.5 -8 -22.5s-11 -14 -21 -18s-22.667 -6 -38 -6z" />
    <glyph glyph-name="Eth" unicode="&#xd0;" horiz-adv-x="698" 
d="M52 316v92.002h42v322h243c118 0 198 -36 240 -108c20.667 -34.667 35 -72.334 43 -113.001s12 -85.834 12 -135.501s-2.33301 -91.5 -7 -125.5s-13.5 -67.167 -26.5 -99.5s-30.167 -58.833 -51.5 -79.5c-47.333 -46 -117.333 -69 -210 -69h-243v316h-42zM319 625.002
h-89v-217h174v-92h-174v-211h89c71.333 0 119.666 25.667 144.999 77c21.333 44.667 32 105.667 32 183s-10.667 138.333 -32 183c-25.333 51.333 -73.666 77 -144.999 77z" />
    <glyph glyph-name="Ntilde" unicode="&#xd1;" horiz-adv-x="757" 
d="M527 730h136v-730h-144l-289 496v-496h-136v730h144l289 -497v497zM521.5 846c-17 -18 -35.5 -27 -55.5 -27s-45.667 6 -77 18s-52 18 -62 18c-19.333 0 -33.333 -14.667 -42 -44l-75 24c11.333 42 25.5 72 42.5 90s35.5 27 55.5 27s45.833 -6 77.5 -18
s52.5 -18 62.5 -18c19.333 0 33.333 14.667 42 44l74 -24c-11.333 -42 -25.5 -72 -42.5 -90z" />
    <glyph glyph-name="Ograve" unicode="&#xd2;" horiz-adv-x="709" 
d="M502.5 14.5c-40.333 -19 -87.001 -28.501 -140.001 -28.501s-97.167 6.5 -132.5 19.5s-64 30.333 -86 52s-39.667 49.167 -53 82.5c-23.333 58.667 -35 133.667 -35 225c0 56.667 4.33301 106.334 13 149.001s23.667 82 45 118c42.667 74.667 122.667 112 240 112
c133.333 0 221.333 -51.667 264 -155c23.333 -58 35 -132.667 35 -224c0 -57.333 -4.33301 -107.333 -13 -150s-23.667 -82 -45 -118s-52.166 -63.5 -92.499 -82.5zM353.999 95.999c60.667 0 103 23.667 127 71s36 113.333 36 198s-12 150.667 -36 198s-66.333 71 -127 71
c-64 0 -107.667 -26 -131 -78c-20.667 -47.333 -31 -111 -31 -191c0 -133.333 27 -216.333 81 -249c22 -13.333 49 -20 81 -20zM476.999 849.999l-45 -72l-210 109l60 96z" />
    <glyph glyph-name="Oacute" unicode="&#xd3;" horiz-adv-x="709" 
d="M502.5 14.5c-40.333 -19 -87.001 -28.501 -140.001 -28.501s-97.167 6.5 -132.5 19.5s-64 30.333 -86 52s-39.667 49.167 -53 82.5c-23.333 58.667 -35 133.667 -35 225c0 56.667 4.33301 106.334 13 149.001s23.667 82 45 118c42.667 74.667 122.667 112 240 112
c133.333 0 221.333 -51.667 264 -155c23.333 -58 35 -132.667 35 -224c0 -57.333 -4.33301 -107.333 -13 -150s-23.667 -82 -45 -118s-52.166 -63.5 -92.499 -82.5zM353.999 95.999c60.667 0 103 23.667 127 71s36 113.333 36 198s-12 150.667 -36 198s-66.333 71 -127 71
c-64 0 -107.667 -26 -131 -78c-20.667 -47.333 -31 -111 -31 -191c0 -133.333 27 -216.333 81 -249c22 -13.333 49 -20 81 -20zM276.999 777.999l-45 72l195 133l60 -96z" />
    <glyph glyph-name="Ocircumflex" unicode="&#xd4;" horiz-adv-x="709" 
d="M502.5 14.5c-40.333 -19 -87.001 -28.501 -140.001 -28.501s-97.167 6.5 -132.5 19.5s-64 30.333 -86 52s-39.667 49.167 -53 82.5c-23.333 58.667 -35 133.667 -35 225c0 56.667 4.33301 106.334 13 149.001s23.667 82 45 118c42.667 74.667 122.667 112 240 112
c133.333 0 221.333 -51.667 264 -155c23.333 -58 35 -132.667 35 -224c0 -57.333 -4.33301 -107.333 -13 -150s-23.667 -82 -45 -118s-52.166 -63.5 -92.499 -82.5zM353.999 95.999c60.667 0 103 23.667 127 71s36 113.333 36 198s-12 150.667 -36 198s-66.333 71 -127 71
c-64 0 -107.667 -26 -131 -78c-20.667 -47.333 -31 -111 -31 -191c0 -133.333 27 -216.333 81 -249c22 -13.333 49 -20 81 -20zM243.999 783.999l-48 48l128 147h61l128 -147l-48 -48l-111 84z" />
    <glyph glyph-name="Otilde" unicode="&#xd5;" horiz-adv-x="709" 
d="M502.5 14.5c-40.333 -19 -87.001 -28.501 -140.001 -28.501s-97.167 6.5 -132.5 19.5s-64 30.333 -86 52s-39.667 49.167 -53 82.5c-23.333 58.667 -35 133.667 -35 225c0 56.667 4.33301 106.334 13 149.001s23.667 82 45 118c42.667 74.667 122.667 112 240 112
c133.333 0 221.333 -51.667 264 -155c23.333 -58 35 -132.667 35 -224c0 -57.333 -4.33301 -107.333 -13 -150s-23.667 -82 -45 -118s-52.166 -63.5 -92.499 -82.5zM353.999 95.999c60.667 0 103 23.667 127 71s36 113.333 36 198s-12 150.667 -36 198s-66.333 71 -127 71
c-64 0 -107.667 -26 -131 -78c-20.667 -47.333 -31 -111 -31 -191c0 -133.333 27 -216.333 81 -249c22 -13.333 49 -20 81 -20zM488.499 845.999c-17 -18 -35.5 -27 -55.5 -27s-45.667 6 -77 18s-52 18 -62 18c-19.333 0 -33.333 -14.667 -42 -44l-75 24
c11.333 42 25.5 72 42.5 90s35.5 27 55.5 27s45.833 -6 77.5 -18s52.5 -18 62.5 -18c19.333 0 33.333 14.667 42 44l74 -24c-11.333 -42 -25.5 -72 -42.5 -90z" />
    <glyph glyph-name="Odieresis" unicode="&#xd6;" horiz-adv-x="709" 
d="M502.5 14.5c-40.333 -19 -87.001 -28.501 -140.001 -28.501s-97.167 6.5 -132.5 19.5s-64 30.333 -86 52s-39.667 49.167 -53 82.5c-23.333 58.667 -35 133.667 -35 225c0 56.667 4.33301 106.334 13 149.001s23.667 82 45 118c42.667 74.667 122.667 112 240 112
c133.333 0 221.333 -51.667 264 -155c23.333 -58 35 -132.667 35 -224c0 -57.333 -4.33301 -107.333 -13 -150s-23.667 -82 -45 -118s-52.166 -63.5 -92.499 -82.5zM353.999 95.999c60.667 0 103 23.667 127 71s36 113.333 36 198s-12 150.667 -36 198s-66.333 71 -127 71
c-64 0 -107.667 -26 -131 -78c-20.667 -47.333 -31 -111 -31 -191c0 -133.333 27 -216.333 81 -249c22 -13.333 49 -20 81 -20zM243.999 800.999c-15.333 0 -27.667 2 -37 6s-16 10 -20 18c-6.66699 13.333 -10 27.666 -10 42.999s0.666992 26.5 2 33.5s4 14.5 8 22.5
c8 17.333 27 26 57 26c31.333 0 51 -8.66699 59 -26c6.66699 -13.333 10 -27.666 10 -42.999s-0.666992 -26.5 -2 -33.5s-4 -14.5 -8 -22.5s-11 -14 -21 -18s-22.667 -6 -38 -6zM461.998 800.999c-15.333 0 -27.667 2 -37 6s-16 10 -20 18
c-6.66699 13.333 -10 27.666 -10 42.999s0.666992 26.5 2 33.5s4 14.5 8 22.5c8 17.333 27 26 57 26c31.333 0 51 -8.66699 59 -26c6.66699 -13.333 10 -27.666 10 -42.999s-0.666992 -26.5 -2 -33.5s-4 -14.5 -8 -22.5s-11 -14 -21 -18s-22.667 -6 -38 -6z" />
    <glyph glyph-name="multiply" unicode="&#xd7;" 
d="M161 123l-66 66l130 129l-130 129l66 66l129 -130l129 130l66 -66l-130 -129l130 -129l-66 -66l-129 130z" />
    <glyph glyph-name="Oslash" unicode="&#xd8;" horiz-adv-x="709" 
d="M56 374c0 50.667 4.33301 97.333 13 140s23.667 82 45 118c42.667 74.667 122.667 112 240 112c11.333 0 26.333 -0.666992 45 -2l20 85h85l-24 -103c63.333 -24 108 -66.667 134 -128s39 -138.333 39 -231c0 -57.333 -4.33301 -107.333 -13 -150s-23.667 -82 -45 -118
c-44 -74 -124.333 -111 -241 -111c-16.667 0 -32 1 -46 3l-19 -83h-84l23 99c-66 24 -112 69 -138 135c-22.667 60.667 -34 138.667 -34 234zM354 95.999c60.667 0 103 23.667 127 71s36 113.333 36 198c0 118 -22 196.333 -66 235l-118 -503
c4.66699 -0.666992 11.667 -1 21 -1zM374 632.999l-20 1.00098c-64 0 -107.667 -26 -131 -78c-20.667 -47.333 -31 -111 -31 -191c0 -118.667 21.333 -197.334 64 -236.001z" />
    <glyph glyph-name="Ugrave" unicode="&#xd9;" horiz-adv-x="703" 
d="M488 730h135.997v-489c0 -44.667 -5.66699 -83 -17 -115s-25.333 -56.833 -42 -74.5s-38 -31.667 -64 -42s-50.167 -16.833 -72.5 -19.5s-48.166 -4 -77.499 -4s-55.166 1.33301 -77.499 4s-46.5 9.16699 -72.5 19.5s-47.167 24.333 -63.5 42s-30.166 42.5 -41.499 74.5
s-17 70.333 -17 115v489h136v-479c0 -62 12 -103.167 36 -123.5s57.333 -30.5 100 -30.5c20.667 0 38 1.66699 52 5s28 10 42 20c28.667 20.667 43 63.667 43 129v479zM447.997 850l-45 -72l-210 109l60 96z" />
    <glyph glyph-name="Uacute" unicode="&#xda;" horiz-adv-x="703" 
d="M488 730h135.997v-489c0 -44.667 -5.66699 -83 -17 -115s-25.333 -56.833 -42 -74.5s-38 -31.667 -64 -42s-50.167 -16.833 -72.5 -19.5s-48.166 -4 -77.499 -4s-55.166 1.33301 -77.499 4s-46.5 9.16699 -72.5 19.5s-47.167 24.333 -63.5 42s-30.166 42.5 -41.499 74.5
s-17 70.333 -17 115v489h136v-479c0 -62 12 -103.167 36 -123.5s57.333 -30.5 100 -30.5c20.667 0 38 1.66699 52 5s28 10 42 20c28.667 20.667 43 63.667 43 129v479zM327.997 778l-45 72l195 133l60 -96z" />
    <glyph glyph-name="Ucircumflex" unicode="&#xdb;" horiz-adv-x="703" 
d="M488 730h135.997v-489c0 -44.667 -5.66699 -83 -17 -115s-25.333 -56.833 -42 -74.5s-38 -31.667 -64 -42s-50.167 -16.833 -72.5 -19.5s-48.166 -4 -77.499 -4s-55.166 1.33301 -77.499 4s-46.5 9.16699 -72.5 19.5s-47.167 24.333 -63.5 42s-30.166 42.5 -41.499 74.5
s-17 70.333 -17 115v489h136v-479c0 -62 12 -103.167 36 -123.5s57.333 -30.5 100 -30.5c20.667 0 38 1.66699 52 5s28 10 42 20c28.667 20.667 43 63.667 43 129v479zM243.997 784l-48 48l128 147h61l128 -147l-48 -48l-111 84z" />
    <glyph glyph-name="Udieresis" unicode="&#xdc;" horiz-adv-x="703" 
d="M488 730h135.997v-489c0 -44.667 -5.66699 -83 -17 -115s-25.333 -56.833 -42 -74.5s-38 -31.667 -64 -42s-50.167 -16.833 -72.5 -19.5s-48.166 -4 -77.499 -4s-55.166 1.33301 -77.499 4s-46.5 9.16699 -72.5 19.5s-47.167 24.333 -63.5 42s-30.166 42.5 -41.499 74.5
s-17 70.333 -17 115v489h136v-479c0 -62 12 -103.167 36 -123.5s57.333 -30.5 100 -30.5c20.667 0 38 1.66699 52 5s28 10 42 20c28.667 20.667 43 63.667 43 129v479zM244.997 801c-15.333 0 -27.667 2 -37 6s-16 10 -20 18c-6.66699 13.333 -10 27.666 -10 42.999
s0.666992 26.5 2 33.5s4 14.5 8 22.5c8 17.333 27 26 57 26c31.333 0 51 -8.66699 59 -26c6.66699 -13.333 10 -27.666 10 -42.999s-0.666992 -26.5 -2 -33.5s-4 -14.5 -8 -22.5s-11 -14 -21 -18s-22.667 -6 -38 -6zM462.996 801c-15.333 0 -27.667 2 -37 6s-16 10 -20 18
c-6.66699 13.333 -10 27.666 -10 42.999s0.666992 26.5 2 33.5s4 14.5 8 22.5c8 17.333 27 26 57 26c31.333 0 51 -8.66699 59 -26c6.66699 -13.333 10 -27.666 10 -42.999s-0.666992 -26.5 -2 -33.5s-4 -14.5 -8 -22.5s-11 -14 -21 -18s-22.667 -6 -38 -6z" />
    <glyph glyph-name="Yacute" unicode="&#xdd;" horiz-adv-x="574" 
d="M355 0h-136v254l-225 476h136l157 -349l157 349h136l-225 -476v-254zM225 778l-45 72l195 133l60 -96z" />
    <glyph glyph-name="Thorn" unicode="&#xde;" horiz-adv-x="587" 
d="M342 137h-112v-137h-136v730h136v-138h112c82 0 140.333 -21.167 175 -63.5s52 -97 52 -164s-17.333 -121.667 -52 -164s-93 -63.5 -175 -63.5zM230 247h90c42 0 71.333 10.333 88 31s25 49.5 25 86.5s-8.33301 65.833 -25 86.5s-46 31 -88 31h-90v-235z" />
    <glyph glyph-name="germandbls" unicode="&#xdf;" horiz-adv-x="660" 
d="M607 320c26 -33.333 39 -78.333 39 -135s-16.167 -104 -48.5 -142s-80.333 -57 -144 -57s-109.5 16.333 -137.5 49s-42 86 -42 160h109c0 -38 4.5 -64.667 13.5 -80s25.5 -23 49.5 -23c44 0 66 38.333 66 115c0 39.333 -8 67.5 -24 84.5s-42.333 25.5 -79 25.5h-101v99
h52c28.667 0 50 10.333 64 31s21 47.667 21 81c0 74.667 -35.333 112 -106 112c-67.333 0 -101 -37.333 -101 -112v-528h-134v528c0 145.333 82 218 246 218c74 0 130.667 -18.333 170 -55s59 -86.167 59 -148.5s-27.667 -114.833 -83 -157.5c48 -10 85 -31.667 111 -65z
" />
    <glyph glyph-name="agrave" unicode="&#xe0;" horiz-adv-x="597" 
d="M295 586c145.333 0 217.999 -66.333 217.999 -199v-387h-87l-38 70c-53.333 -56 -115.666 -84 -186.999 -84c-50.667 0 -89.167 14.167 -115.5 42.5s-39.5 66.333 -39.5 114s15 86.167 45 115.5s86 50 168 62l120 18v48c0 64.667 -30.667 97 -92 97
c-58 0 -92.333 -29.333 -103 -88l-104 31c25.333 106.667 97 160 215 160zM243.999 84c45.333 0 90.333 22.333 135 67v103l-96 -17c-43.333 -7.33301 -72 -19 -86 -35s-21 -34 -21 -54s6 -35.667 18 -47s28.667 -17 50 -17zM411.999 692l-45 -72l-210 109l60 96z" />
    <glyph glyph-name="aacute" unicode="&#xe1;" horiz-adv-x="597" 
d="M295 586c145.333 0 217.999 -66.333 217.999 -199v-387h-87l-38 70c-53.333 -56 -115.666 -84 -186.999 -84c-50.667 0 -89.167 14.167 -115.5 42.5s-39.5 66.333 -39.5 114s15 86.167 45 115.5s86 50 168 62l120 18v48c0 64.667 -30.667 97 -92 97
c-58 0 -92.333 -29.333 -103 -88l-104 31c25.333 106.667 97 160 215 160zM243.999 84c45.333 0 90.333 22.333 135 67v103l-96 -17c-43.333 -7.33301 -72 -19 -86 -35s-21 -34 -21 -54s6 -35.667 18 -47s28.667 -17 50 -17zM257.999 620l-45 72l195 133l60 -96z" />
    <glyph glyph-name="acircumflex" unicode="&#xe2;" horiz-adv-x="597" 
d="M295 586c145.333 0 217.999 -66.333 217.999 -199v-387h-87l-38 70c-53.333 -56 -115.666 -84 -186.999 -84c-50.667 0 -89.167 14.167 -115.5 42.5s-39.5 66.333 -39.5 114s15 86.167 45 115.5s86 50 168 62l120 18v48c0 64.667 -30.667 97 -92 97
c-58 0 -92.333 -29.333 -103 -88l-104 31c25.333 106.667 97 160 215 160zM243.999 84c45.333 0 90.333 22.333 135 67v103l-96 -17c-43.333 -7.33301 -72 -19 -86 -35s-21 -34 -21 -54s6 -35.667 18 -47s28.667 -17 50 -17zM178.999 626l-48 48l128 147h61l128 -147
l-48 -48l-111 84z" />
    <glyph glyph-name="atilde" unicode="&#xe3;" horiz-adv-x="597" 
d="M295 586c145.333 0 217.999 -66.333 217.999 -199v-387h-87l-38 70c-53.333 -56 -115.666 -84 -186.999 -84c-50.667 0 -89.167 14.167 -115.5 42.5s-39.5 66.333 -39.5 114s15 86.167 45 115.5s86 50 168 62l120 18v48c0 64.667 -30.667 97 -92 97
c-58 0 -92.333 -29.333 -103 -88l-104 31c25.333 106.667 97 160 215 160zM243.999 84c45.333 0 90.333 22.333 135 67v103l-96 -17c-43.333 -7.33301 -72 -19 -86 -35s-21 -34 -21 -54s6 -35.667 18 -47s28.667 -17 50 -17zM423.499 688c-17 -18 -35.5 -27 -55.5 -27
s-45.667 6 -77 18s-52 18 -62 18c-19.333 0 -33.333 -14.667 -42 -44l-75 24c11.333 42 25.5 72 42.5 90s35.5 27 55.5 27s45.833 -6 77.5 -18s52.5 -18 62.5 -18c19.333 0 33.333 14.667 42 44l74 -24c-11.333 -42 -25.5 -72 -42.5 -90z" />
    <glyph glyph-name="adieresis" unicode="&#xe4;" horiz-adv-x="597" 
d="M295 586c145.333 0 217.999 -66.333 217.999 -199v-387h-87l-38 70c-53.333 -56 -115.666 -84 -186.999 -84c-50.667 0 -89.167 14.167 -115.5 42.5s-39.5 66.333 -39.5 114s15 86.167 45 115.5s86 50 168 62l120 18v48c0 64.667 -30.667 97 -92 97
c-58 0 -92.333 -29.333 -103 -88l-104 31c25.333 106.667 97 160 215 160zM243.999 84c45.333 0 90.333 22.333 135 67v103l-96 -17c-43.333 -7.33301 -72 -19 -86 -35s-21 -34 -21 -54s6 -35.667 18 -47s28.667 -17 50 -17zM195.999 643c-15.333 0 -27.667 2 -37 6
s-16 10 -20 18c-6.66699 13.333 -10 27.666 -10 42.999s0.666992 26.5 2 33.5s4 14.5 8 22.5c8 17.333 27 26 57 26c31.333 0 51 -8.66699 59 -26c6.66699 -13.333 10 -27.666 10 -42.999s-0.666992 -26.5 -2 -33.5s-4 -14.5 -8 -22.5s-11 -14 -21 -18s-22.667 -6 -38 -6z
M413.998 643c-15.333 0 -27.667 2 -37 6s-16 10 -20 18c-6.66699 13.333 -10 27.666 -10 42.999s0.666992 26.5 2 33.5s4 14.5 8 22.5c8 17.333 27 26 57 26c31.333 0 51 -8.66699 59 -26c6.66699 -13.333 10 -27.666 10 -42.999s-0.666992 -26.5 -2 -33.5
s-4 -14.5 -8 -22.5s-11 -14 -21 -18s-22.667 -6 -38 -6z" />
    <glyph glyph-name="aring" unicode="&#xe5;" horiz-adv-x="597" 
d="M295 586c145.333 0 217.999 -66.333 217.999 -199v-387h-87l-38 70c-53.333 -56 -115.666 -84 -186.999 -84c-50.667 0 -89.167 14.167 -115.5 42.5s-39.5 66.333 -39.5 114s15 86.167 45 115.5s86 50 168 62l120 18v48c0 64.667 -30.667 97 -92 97
c-58 0 -92.333 -29.333 -103 -88l-104 31c25.333 106.667 97 160 215 160zM243.999 84c45.333 0 90.333 22.333 135 67v103l-96 -17c-43.333 -7.33301 -72 -19 -86 -35s-21 -34 -21 -54s6 -35.667 18 -47s28.667 -17 50 -17zM307.999 676c27.333 0 41 16.333 41 49
s-13.667 49 -41 49c-24.667 0 -37 -16.333 -37 -49s12.333 -49 37 -49zM307.999 612c-74 0 -111 37.5 -111 112.5s37 112.5 111 112.5c43.333 0 73.333 -11.167 90 -33.5s25 -48.833 25 -79.5s-8.33301 -57 -25 -79s-46.667 -33 -90 -33z" />
    <glyph glyph-name="ae" unicode="&#xe6;" horiz-adv-x="902" 
d="M631 -14c-104.667 0 -176.001 32.6689 -214.001 98.002c-65.333 -65.333 -138.666 -98 -219.999 -98c-49.333 0 -87 14.167 -113 42.5s-39 66.166 -39 113.499s14.667 85.833 44 115.5s84.666 51.167 165.999 64.5l116 19v45c0 64.667 -29 97 -87 97
s-92.333 -29.333 -103 -88l-105 28c25.333 108.667 97 163 215 163c74.667 0 130 -18.333 166 -55c40.667 36.667 97.334 55 170.001 55c96.667 0 163 -30 199 -90c30 -51.333 45 -118 45 -200v-36h-366c0.666992 -62.667 11 -106.834 31 -132.501s53 -38.5 99 -38.5
c74 0 113.333 26.667 118 80l110 -4c-10.667 -119.333 -88 -179 -232 -179zM239.999 81.002c55.333 0 105.001 22.667 149.001 68c-8.66699 39.333 -13.334 73 -14.001 101l-96 -18c-42.667 -8 -70.834 -19.667 -84.501 -35s-20.5 -32.833 -20.5 -52.5
s5.83301 -35.167 17.5 -46.5s27.834 -17 48.501 -17zM626 483.002c-38 0 -65.833 -10.501 -83.5 -31.501s-29.167 -54.5 -34.5 -100.5h231c-4 44.667 -14.333 77.834 -31 99.501s-44 32.5 -82 32.5z" />
    <glyph glyph-name="ccedilla" unicode="&#xe7;" horiz-adv-x="536" 
d="M170 286c0 -67.333 8.5 -116.998 25.5 -148.998s46.667 -48 89 -48s72.666 8.66699 90.999 26s28.166 44.666 29.499 81.999l105 -5c-4 -68 -23.833 -119.333 -59.5 -154s-94.167 -52 -175.5 -52c-95.333 0 -160.333 31 -195 93c-16.667 30 -28.167 61.333 -34.5 94
s-9.5 70.5 -9.5 113.5s3.16699 81 9.5 114s17.833 64.167 34.5 93.5c34 61.333 99 92 195 92c80.667 0 138.667 -16.5 174 -49.5s55.333 -82.167 60 -147.5l-104 -14c-1.33301 37.333 -11.166 64.666 -29.499 81.999s-48.666 26 -90.999 26s-72 -16 -89 -48
s-25.5 -81.667 -25.5 -149zM149 -129.998l84.001 0.000976562c0 -24.667 10.667 -37 32 -37c9.33301 0 16.666 2.16699 21.999 6.5s8.5 8.83301 9.5 13.5s1.5 10.667 1.5 18c0 20.667 -12 33 -36 37l-53 9l9 48h44c38 0 67.167 -6.83301 87.5 -20.5
s30.5 -38.834 30.5 -75.501s-8.5 -64.167 -25.5 -82.5s-47.167 -27.5 -90.5 -27.5c-76.667 0 -115 37 -115 111z" />
    <glyph glyph-name="egrave" unicode="&#xe8;" horiz-adv-x="563" 
d="M292 -14c-92 0 -157.667 24.833 -197 74.5s-59 124.834 -59 225.501c0 200 84 300 252 300c96.667 0 162.667 -30 198 -90c30.667 -51.333 46 -118 46 -200v-36h-366c0.666992 -62.667 11 -106.834 31 -132.501s53 -38.5 99 -38.5c74 0 113.333 26.667 118 80l110 -4
c-10.667 -119.333 -88 -179 -232 -179zM287 483c-38 0 -65.833 -10.501 -83.5 -31.501s-29.167 -54.5 -34.5 -100.5h231c-4 44.667 -14.333 77.834 -31 99.501s-44 32.5 -82 32.5zM408 691.999l-45 -72l-210 109l60 96z" />
    <glyph glyph-name="eacute" unicode="&#xe9;" horiz-adv-x="563" 
d="M292 -14c-92 0 -157.667 24.833 -197 74.5s-59 124.834 -59 225.501c0 200 84 300 252 300c96.667 0 162.667 -30 198 -90c30.667 -51.333 46 -118 46 -200v-36h-366c0.666992 -62.667 11 -106.834 31 -132.501s53 -38.5 99 -38.5c74 0 113.333 26.667 118 80l110 -4
c-10.667 -119.333 -88 -179 -232 -179zM287 483c-38 0 -65.833 -10.501 -83.5 -31.501s-29.167 -54.5 -34.5 -100.5h231c-4 44.667 -14.333 77.834 -31 99.501s-44 32.5 -82 32.5zM246 619.999l-45 72l195 133l60 -96z" />
    <glyph glyph-name="ecircumflex" unicode="&#xea;" horiz-adv-x="563" 
d="M292 -14c-92 0 -157.667 24.833 -197 74.5s-59 124.834 -59 225.501c0 200 84 300 252 300c96.667 0 162.667 -30 198 -90c30.667 -51.333 46 -118 46 -200v-36h-366c0.666992 -62.667 11 -106.834 31 -132.501s53 -38.5 99 -38.5c74 0 113.333 26.667 118 80l110 -4
c-10.667 -119.333 -88 -179 -232 -179zM287 483c-38 0 -65.833 -10.501 -83.5 -31.501s-29.167 -54.5 -34.5 -100.5h231c-4 44.667 -14.333 77.834 -31 99.501s-44 32.5 -82 32.5zM175 625.999l-48 48l128 147h61l128 -147l-48 -48l-111 84z" />
    <glyph glyph-name="edieresis" unicode="&#xeb;" horiz-adv-x="561" 
d="M290 -14c-92 0 -157.667 24.833 -197 74.5s-59 124.834 -59 225.501c0 200 84 300 252 300c96.667 0 162.667 -30 198 -90c30.667 -51.333 46 -118 46 -200v-36h-366c0.666992 -62.667 11 -106.834 31 -132.501s53 -38.5 99 -38.5c74 0 113.333 26.667 118 80l110 -4
c-10.667 -119.333 -88 -179 -232 -179zM285 483c-38 0 -65.833 -10.501 -83.5 -31.501s-29.167 -54.5 -34.5 -100.5h231c-4 44.667 -14.333 77.834 -31 99.501s-44 32.5 -82 32.5zM173 642.999c-15.333 0 -27.667 2 -37 6s-16 10 -20 18
c-6.66699 13.333 -10 27.666 -10 42.999s0.666992 26.5 2 33.5s4 14.5 8 22.5c8 17.333 27 26 57 26c31.333 0 51 -8.66699 59 -26c6.66699 -13.333 10 -27.666 10 -42.999s-0.666992 -26.5 -2 -33.5s-4 -14.5 -8 -22.5s-11 -14 -21 -18s-22.667 -6 -38 -6zM390.999 642.999
c-15.333 0 -27.667 2 -37 6s-16 10 -20 18c-6.66699 13.333 -10 27.666 -10 42.999s0.666992 26.5 2 33.5s4 14.5 8 22.5c8 17.333 27 26 57 26c31.333 0 51 -8.66699 59 -26c6.66699 -13.333 10 -27.666 10 -42.999s-0.666992 -26.5 -2 -33.5s-4 -14.5 -8 -22.5
s-11 -14 -21 -18s-22.667 -6 -38 -6z" />
    <glyph glyph-name="igrave" unicode="&#xec;" horiz-adv-x="322" 
d="M94 572h134v-572h-134v572zM274 692l-45 -72l-210 109l60 96z" />
    <glyph glyph-name="iacute" unicode="&#xed;" horiz-adv-x="322" 
d="M94 572h134v-572h-134v572zM99 620l-45 72l195 133l60 -96z" />
    <glyph glyph-name="icircumflex" unicode="&#xee;" horiz-adv-x="322" 
d="M94 572h134v-572h-134v572zM41 626l-48 48l128 147h61l128 -147l-48 -48l-111 84z" />
    <glyph glyph-name="idieresis" unicode="&#xef;" horiz-adv-x="322" 
d="M94 572h134v-572h-134v572zM51 643c-15.333 0 -27.667 2 -37 6s-16 10 -20 18c-6.66699 13.333 -10 27.666 -10 42.999s0.666992 26.5 2 33.5s4 14.5 8 22.5c8 17.333 27 26 57 26c31.333 0 51 -8.66699 59 -26c6.66699 -13.333 10 -27.666 10 -42.999
s-0.666992 -26.5 -2 -33.5s-4 -14.5 -8 -22.5s-11 -14 -21 -18s-22.667 -6 -38 -6zM268.999 643c-15.333 0 -27.667 2 -37 6s-16 10 -20 18c-6.66699 13.333 -10 27.666 -10 42.999s0.666992 26.5 2 33.5s4 14.5 8 22.5c8 17.333 27 26 57 26c31.333 0 51 -8.66699 59 -26
c6.66699 -13.333 10 -27.666 10 -42.999s-0.666992 -26.5 -2 -33.5s-4 -14.5 -8 -22.5s-11 -14 -21 -18s-22.667 -6 -38 -6z" />
    <glyph glyph-name="eth" unicode="&#xf0;" horiz-adv-x="592" 
d="M556 267v-21c0 -129.333 -50.667 -210.666 -152 -243.999c-31.333 -10.667 -67.333 -16 -108 -16s-76.667 5.16699 -108 15.5s-56.333 23.833 -75 40.5s-34 36.667 -46 60c-20.667 40 -31 88 -31 144c0 67.333 16.667 125.333 50 174c18 26.667 45 47.667 81 63
s75.833 23 119.5 23s81.5 -11.333 113.5 -34c-12 38.667 -29 75.667 -51 111l-97 -39v87l47 19l-37 39l63 75c28 -24 53 -48.667 75 -74l134 53v-87l-84 -33c70.667 -106.667 106 -225.334 106 -356.001zM296 85c84 0 126 53.667 126 161s-42 161 -126 161
s-126 -53.667 -126 -161s42 -161 126 -161z" />
    <glyph glyph-name="ntilde" unicode="&#xf1;" horiz-adv-x="663" 
d="M200 520c62.667 44 126.833 66 192.5 66s113.167 -16.167 142.5 -48.5s44 -76.833 44 -133.5v-404h-134v390c0 34 -6.16699 58 -18.5 72s-33.833 21 -64.5 21c-48 0 -92.667 -15 -134 -45v-438h-134v572h63zM485.499 688c-17 -18 -35.5 -27 -55.5 -27s-45.667 6 -77 18
s-52 18 -62 18c-19.333 0 -33.333 -14.667 -42 -44l-75 24c11.333 42 25.5 72 42.5 90s35.5 27 55.5 27s45.833 -6 77.5 -18s52.5 -18 62.5 -18c19.333 0 33.333 14.667 42 44l74 -24c-11.333 -42 -25.5 -72 -42.5 -90z" />
    <glyph glyph-name="ograve" unicode="&#xf2;" horiz-adv-x="592" 
d="M296 89c49.333 0 82.666 16.667 99.999 50s26 82.333 26 147s-8.66699 113.667 -26 147s-50.666 50 -99.999 50s-82.666 -16.667 -99.999 -50s-26 -82.333 -26 -147s8.66699 -113.667 26 -147s50.666 -50 99.999 -50zM296 -14c-173.333 0 -260 100 -260 300
s86.667 300 260 300s260 -100 260 -300s-86.667 -300 -260 -300zM419 692l-45 -72l-210 109l60 96z" />
    <glyph glyph-name="oacute" unicode="&#xf3;" horiz-adv-x="592" 
d="M296 89c49.333 0 82.666 16.667 99.999 50s26 82.333 26 147s-8.66699 113.667 -26 147s-50.666 50 -99.999 50s-82.666 -16.667 -99.999 -50s-26 -82.333 -26 -147s8.66699 -113.667 26 -147s50.666 -50 99.999 -50zM296 -14c-173.333 0 -260 100 -260 300
s86.667 300 260 300s260 -100 260 -300s-86.667 -300 -260 -300zM256 620l-45 72l195 133l60 -96z" />
    <glyph glyph-name="ocircumflex" unicode="&#xf4;" horiz-adv-x="592" 
d="M296 89c49.333 0 82.666 16.667 99.999 50s26 82.333 26 147s-8.66699 113.667 -26 147s-50.666 50 -99.999 50s-82.666 -16.667 -99.999 -50s-26 -82.333 -26 -147s8.66699 -113.667 26 -147s50.666 -50 99.999 -50zM296 -14c-173.333 0 -260 100 -260 300
s86.667 300 260 300s260 -100 260 -300s-86.667 -300 -260 -300zM185 626l-48 48l128 147h61l128 -147l-48 -48l-111 84z" />
    <glyph glyph-name="otilde" unicode="&#xf5;" horiz-adv-x="592" 
d="M296 89c49.333 0 82.666 16.667 99.999 50s26 82.333 26 147s-8.66699 113.667 -26 147s-50.666 50 -99.999 50s-82.666 -16.667 -99.999 -50s-26 -82.333 -26 -147s8.66699 -113.667 26 -147s50.666 -50 99.999 -50zM296 -14c-173.333 0 -260 100 -260 300
s86.667 300 260 300s260 -100 260 -300s-86.667 -300 -260 -300zM430.5 688c-17 -18 -35.5 -27 -55.5 -27s-45.667 6 -77 18s-52 18 -62 18c-19.333 0 -33.333 -14.667 -42 -44l-75 24c11.333 42 25.5 72 42.5 90s35.5 27 55.5 27s45.833 -6 77.5 -18s52.5 -18 62.5 -18
c19.333 0 33.333 14.667 42 44l74 -24c-11.333 -42 -25.5 -72 -42.5 -90z" />
    <glyph glyph-name="odieresis" unicode="&#xf6;" horiz-adv-x="592" 
d="M296 89c49.333 0 82.666 16.667 99.999 50s26 82.333 26 147s-8.66699 113.667 -26 147s-50.666 50 -99.999 50s-82.666 -16.667 -99.999 -50s-26 -82.333 -26 -147s8.66699 -113.667 26 -147s50.666 -50 99.999 -50zM296 -14c-173.333 0 -260 100 -260 300
s86.667 300 260 300s260 -100 260 -300s-86.667 -300 -260 -300zM186 643c-15.333 0 -27.667 2 -37 6s-16 10 -20 18c-6.66699 13.333 -10 27.666 -10 42.999s0.666992 26.5 2 33.5s4 14.5 8 22.5c8 17.333 27 26 57 26c31.333 0 51 -8.66699 59 -26
c6.66699 -13.333 10 -27.666 10 -42.999s-0.666992 -26.5 -2 -33.5s-4 -14.5 -8 -22.5s-11 -14 -21 -18s-22.667 -6 -38 -6zM403.999 643c-15.333 0 -27.667 2 -37 6s-16 10 -20 18c-6.66699 13.333 -10 27.666 -10 42.999s0.666992 26.5 2 33.5s4 14.5 8 22.5
c8 17.333 27 26 57 26c31.333 0 51 -8.66699 59 -26c6.66699 -13.333 10 -27.666 10 -42.999s-0.666992 -26.5 -2 -33.5s-4 -14.5 -8 -22.5s-11 -14 -21 -18s-22.667 -6 -38 -6z" />
    <glyph glyph-name="divide" unicode="&#xf7;" 
d="M86 272v92h408v-92h-408zM325 65.5c-9.33301 -4.33301 -21.166 -6.5 -35.499 -6.5s-26 2.16699 -35 6.5s-15.5 10.5 -19.5 18.5s-6.5 15.5 -7.5 22.5s-1.5 15.833 -1.5 26.5s0.5 19.667 1.5 27s3.5 15 7.5 23c8.66699 16.667 26.667 25 54 25
c29.333 0 47.666 -8.33301 54.999 -25c6.66699 -14 10 -28.5 10 -43.5s-0.666992 -26 -2 -33s-3.83301 -14.5 -7.5 -22.5s-10.167 -14.167 -19.5 -18.5zM325 424.5c-9.33301 -4.33301 -21.166 -6.5 -35.499 -6.5s-26 2.16699 -35 6.5s-15.5 10.5 -19.5 18.5
s-6.5 15.5 -7.5 22.5s-1.5 15.833 -1.5 26.5s0.5 19.667 1.5 27s3.5 15 7.5 23c8.66699 16.667 26.667 25 54 25c29.333 0 47.666 -8.33301 54.999 -25c6.66699 -14 10 -28.5 10 -43.5s-0.666992 -26 -2 -33s-3.83301 -14.5 -7.5 -22.5s-10.167 -14.167 -19.5 -18.5z" />
    <glyph glyph-name="oslash" unicode="&#xf8;" horiz-adv-x="592" 
d="M36 286c0 200 86.667 300 260 300c8.66699 0 21 -0.666992 37 -2l28 102h85l-32 -120c94.667 -38 142 -131.333 142 -280c0 -200 -86.667 -300 -260 -300c-9.33301 0 -22 0.666992 -38 2l-27 -103h-84l32 120c-95.333 38 -143 131.667 -143 281zM196 433
c-17.333 -33.333 -26.001 -86.833 -26.001 -160.5s13.333 -124.5 40 -152.5l96 363h-10c-49.333 0 -82.666 -16.667 -99.999 -50zM295.999 89c49.333 0 82.667 16.666 100 49.999s26 86.333 26 159s-13 123.334 -39 152.001l-97 -361h10z" />
    <glyph glyph-name="ugrave" unicode="&#xf9;" horiz-adv-x="664" 
d="M260 -14c-117.333 0 -176 60.667 -176 182v404h134v-382c0 -34.667 6.83301 -60.167 20.5 -76.5s36.5 -24.5 68.5 -24.5c45.333 0 88.333 21.333 129 64v419h134v-572h-87l-38 69c-52 -55.333 -113.667 -83 -185 -83zM428 692l-45 -72l-210 109l60 96z" />
    <glyph glyph-name="uacute" unicode="&#xfa;" horiz-adv-x="664" 
d="M260 -14c-117.333 0 -176 60.667 -176 182v404h134v-382c0 -34.667 6.83301 -60.167 20.5 -76.5s36.5 -24.5 68.5 -24.5c45.333 0 88.333 21.333 129 64v419h134v-572h-87l-38 69c-52 -55.333 -113.667 -83 -185 -83zM299 620l-45 72l195 133l60 -96z" />
    <glyph glyph-name="ucircumflex" unicode="&#xfb;" horiz-adv-x="664" 
d="M260 -14c-117.333 0 -176 60.667 -176 182v404h134v-382c0 -34.667 6.83301 -60.167 20.5 -76.5s36.5 -24.5 68.5 -24.5c45.333 0 88.333 21.333 129 64v419h134v-572h-87l-38 69c-52 -55.333 -113.667 -83 -185 -83zM225 626l-48 48l128 147h61l128 -147l-48 -48
l-111 84z" />
    <glyph glyph-name="udieresis" unicode="&#xfc;" horiz-adv-x="664" 
d="M260 -14c-117.333 0 -176 60.667 -176 182v404h134v-382c0 -34.667 6.83301 -60.167 20.5 -76.5s36.5 -24.5 68.5 -24.5c45.333 0 88.333 21.333 129 64v419h134v-572h-87l-38 69c-52 -55.333 -113.667 -83 -185 -83zM225 643c-15.333 0 -27.667 2 -37 6s-16 10 -20 18
c-6.66699 13.333 -10 27.666 -10 42.999s0.666992 26.5 2 33.5s4 14.5 8 22.5c8 17.333 27 26 57 26c31.333 0 51 -8.66699 59 -26c6.66699 -13.333 10 -27.666 10 -42.999s-0.666992 -26.5 -2 -33.5s-4 -14.5 -8 -22.5s-11 -14 -21 -18s-22.667 -6 -38 -6zM442.999 643
c-15.333 0 -27.667 2 -37 6s-16 10 -20 18c-6.66699 13.333 -10 27.666 -10 42.999s0.666992 26.5 2 33.5s4 14.5 8 22.5c8 17.333 27 26 57 26c31.333 0 51 -8.66699 59 -26c6.66699 -13.333 10 -27.666 10 -42.999s-0.666992 -26.5 -2 -33.5s-4 -14.5 -8 -22.5
s-11 -14 -21 -18s-22.667 -6 -38 -6z" />
    <glyph glyph-name="yacute" unicode="&#xfd;" horiz-adv-x="542" 
d="M251 -237l-119 18l81 211l-209 580h135l137 -398l124 398h137zM222 620l-45 72l195 133l60 -96z" />
    <glyph glyph-name="thorn" unicode="&#xfe;" horiz-adv-x="634" 
d="M370 586c152 0 228 -100 228 -300s-76.333 -300 -229 -300c-44 0 -91 8.33301 -141 25v-216h-134v935l134 12v-200c46.667 29.333 94 44 142 44zM336 482c-38 0 -74 -13 -108 -39v-334c36 -12.667 74.667 -19 116 -19c80 0 120 65.333 120 196s-42.667 196 -128 196z" />
    <glyph glyph-name="ydieresis" unicode="&#xff;" horiz-adv-x="542" 
d="M251 -237l-119 18l81 211l-209 580h135l137 -398l124 398h137zM184 643c-15.333 0 -27.667 2 -37 6s-16 10 -20 18c-6.66699 13.333 -10 27.666 -10 42.999s0.666992 26.5 2 33.5s4 14.5 8 22.5c8 17.333 27 26 57 26c31.333 0 51 -8.66699 59 -26
c6.66699 -13.333 10 -27.666 10 -42.999s-0.666992 -26.5 -2 -33.5s-4 -14.5 -8 -22.5s-11 -14 -21 -18s-22.667 -6 -38 -6zM401.999 643c-15.333 0 -27.667 2 -37 6s-16 10 -20 18c-6.66699 13.333 -10 27.666 -10 42.999s0.666992 26.5 2 33.5s4 14.5 8 22.5
c8 17.333 27 26 57 26c31.333 0 51 -8.66699 59 -26c6.66699 -13.333 10 -27.666 10 -42.999s-0.666992 -26.5 -2 -33.5s-4 -14.5 -8 -22.5s-11 -14 -21 -18s-22.667 -6 -38 -6z" />
    <glyph glyph-name="dotlessi" unicode="&#x131;" horiz-adv-x="322" 
d="M94 572h134v-572h-134v572z" />
    <glyph glyph-name="Lslash" unicode="&#x141;" horiz-adv-x="483" 
d="M94 730h136v-281l75 30v-87l-75 -30v-257h249v-105h-385v308l-71 -28v87l71 28v335z" />
    <glyph glyph-name="lslash" unicode="&#x142;" horiz-adv-x="322" 
d="M228 0h-134v309l-74 -29v87l74 29v356l134 18v-321l74 30v-87l-74 -30v-362z" />
    <glyph glyph-name="OE" unicode="&#x152;" horiz-adv-x="949" 
d="M349 0c-115.333 0 -194 34.666 -236 103.999c-38 63.333 -57 150.333 -57 261c0 56 4.33301 104.667 13 146s23.334 79 44.001 113c42.667 70.667 121.334 106 236.001 106h546v-105h-309c31.333 -47.333 49.666 -114.666 54.999 -201.999h229v-104h-228
c-4.66699 -94 -23.334 -165.333 -56.001 -214h329v-105h-566zM349 108.999c59.333 0 100.5 22.167 123.5 66.5s34.5 107.5 34.5 189.5s-11.5 145.167 -34.5 189.5s-64.167 66.5 -123.5 66.5s-100.333 -22.167 -123 -66.5s-34 -107.5 -34 -189.5s11.333 -145.167 34 -189.5
s63.667 -66.5 123 -66.5z" />
    <glyph glyph-name="oe" unicode="&#x153;" horiz-adv-x="953" 
d="M682 -14c-90 0 -154.668 24.334 -194.001 73.001c-42 -48.667 -106 -73 -192 -73c-173.333 0 -260 100 -260 300s86.667 300 260 300c86.667 0 151.334 -25 194.001 -75c41.333 50 104 75 188 75c96.667 0 162.667 -30 198 -90c30.667 -51.333 46 -118 46 -200v-36h-366
c1.33301 -62.667 11.833 -106.834 31.5 -132.501s52.5 -38.5 98.5 -38.5c74 0 113.333 26.667 118 80l110 -4c-10.667 -119.333 -88 -179 -232 -179zM421.999 287.501c0 63 -8.49805 111.333 -25.498 145s-50.333 50.5 -100 50.5s-83.167 -16.667 -100.5 -50
s-26 -82.333 -26 -147s8.66699 -113.667 26 -147s51.166 -50 101.499 -50s83.666 17.333 99.999 52s24.5 83.5 24.5 146.5zM759.001 450.501c-16.667 21.667 -43.833 32.498 -81.5 32.498s-65.5 -10.667 -83.5 -32s-29.333 -54.666 -34 -99.999h230
c-4 44.667 -14.333 77.834 -31 99.501z" />
    <glyph glyph-name="Scaron" unicode="&#x160;" horiz-adv-x="603" 
d="M515 341c29.333 -32 44.0039 -80.002 44.0039 -144.002s-22 -115.167 -66 -153.5s-108.667 -57.5 -194 -57.5s-147 18.167 -185 54.5s-61.333 89.166 -70 158.499l109 17c4 -39.333 17.5 -69.833 40.5 -91.5s55.167 -32.5 96.5 -32.5c88.667 0 133 33.667 133 101
c0 28.667 -8.33301 50.334 -25 65.001s-48.667 28 -96 40l-57 14c-66.667 16.667 -114.334 41.334 -143.001 74.001s-43 81.5 -43 146.5s21 116.5 63 154.5s104.167 57 186.5 57s141.666 -18.167 177.999 -54.5s58.833 -89.166 67.5 -158.499l-108 -17
c-8.66699 82.667 -51.334 124 -128.001 124c-42 0 -73 -9.16699 -93 -27.5s-30 -42.5 -30 -72.5s7.66699 -52.333 23 -67s44.666 -27.667 87.999 -39l63 -17c68 -17.333 116.667 -42 146 -74zM421.004 982.998l48 -48l-128 -147h-61l-128 147l48 48l111 -84z" />
    <glyph glyph-name="scaron" unicode="&#x161;" horiz-adv-x="548" 
d="M504 160c0 -114 -80 -170.999 -240 -170.999c-70 0 -122 15.167 -156 45.5s-55.333 74.5 -64 132.5l104 16c7.33301 -64 47.166 -96 119.499 -96s108.5 22.667 108.5 68c0 18.667 -7.16699 32.667 -21.5 42s-43.166 19 -86.499 29l-46 11
c-59.333 14 -101.833 34.5 -127.5 61.5s-38.5 66.167 -38.5 117.5c0 113.333 77.333 170 232 170c66.667 0 116.5 -15.167 149.5 -45.5s53.5 -74.5 61.5 -132.5l-104 -15c-7.33301 63.333 -44.166 95 -110.499 95s-99.5 -22.667 -99.5 -68
c0 -18.667 6.5 -32.834 19.5 -42.501s39.5 -19.167 79.5 -28.5l52 -13c59.333 -14.667 102.166 -35.167 128.499 -61.5s39.5 -64.5 39.5 -114.5zM397 825.001l48 -48l-128 -147h-61l-128 147l48 48l111 -84z" />
    <glyph glyph-name="Ydieresis" unicode="&#x178;" horiz-adv-x="574" 
d="M355 0h-136v254l-225 476h136l157 -349l157 349h136l-225 -476v-254zM177 801c-15.333 0 -27.667 2 -37 6s-16 10 -20 18c-6.66699 13.333 -10 27.666 -10 42.999s0.666992 26.5 2 33.5s4 14.5 8 22.5c8 17.333 27 26 57 26c31.333 0 51 -8.66699 59 -26
c6.66699 -13.333 10 -27.666 10 -42.999s-0.666992 -26.5 -2 -33.5s-4 -14.5 -8 -22.5s-11 -14 -21 -18s-22.667 -6 -38 -6zM394.999 801c-15.333 0 -27.667 2 -37 6s-16 10 -20 18c-6.66699 13.333 -10 27.666 -10 42.999s0.666992 26.5 2 33.5s4 14.5 8 22.5
c8 17.333 27 26 57 26c31.333 0 51 -8.66699 59 -26c6.66699 -13.333 10 -27.666 10 -42.999s-0.666992 -26.5 -2 -33.5s-4 -14.5 -8 -22.5s-11 -14 -21 -18s-22.667 -6 -38 -6z" />
    <glyph glyph-name="Zcaron" unicode="&#x17d;" horiz-adv-x="562" 
d="M42 625v105h488v-86l-345 -539h355v-105h-518v86l345 539h-325zM401 983l48 -48l-128 -147h-61l-128 147l48 48l111 -84z" />
    <glyph glyph-name="zcaron" unicode="&#x17e;" horiz-adv-x="509" 
d="M43 478v94h424v-82l-274 -396h283v-94h-443v82l276 396h-266zM389 825l48 -48l-128 -147h-61l-128 147l48 48l111 -84z" />
    <glyph glyph-name="florin" unicode="&#x192;" horiz-adv-x="630" 
d="M449 638c-62 0 -93 -40.999 -93 -122.999v-126h157v-90h-157v-279c0 -44 -3.16699 -80 -9.5 -108s-18.333 -52.333 -36 -73s-42.5 -35.334 -74.5 -44.001s-73 -13 -123 -13l-9 117c47.333 0 78.5 8.5 93.5 25.5s22.5 49.5 22.5 97.5v277h-107v90h107v126
c0 77.333 17 134.833 51 172.5s87.667 56.5 161 56.5c54.667 0 101.667 -12.333 141 -37l-38 -94c-26 16.667 -54.667 25 -86 25z" />
    <glyph glyph-name="circumflex" unicode="&#x2c6;" horiz-adv-x="385" 
d="M82 626l-48 48l128 147h61l128 -147l-48 -48l-111 84z" />
    <glyph glyph-name="caron" unicode="&#x2c7;" horiz-adv-x="355" 
d="M288 825l48 -48l-128 -147h-61l-128 147l48 48l111 -84z" />
    <glyph glyph-name="breve" unicode="&#x2d8;" horiz-adv-x="409" 
d="M268 787h74.001c0 -42.667 -7.33301 -77 -22 -103c-18.667 -32 -57.334 -48 -116.001 -48c-58 0 -96 16 -114 48c-15.333 26 -23 60.333 -23 103h73c0 -23.333 4.16699 -40.833 12.5 -52.5s25.5 -17.5 51.5 -17.5s43.167 5.83301 51.5 17.5s12.5 29.167 12.5 52.5z" />
    <glyph glyph-name="dotaccent" unicode="&#x2d9;" horiz-adv-x="258" 
d="M188 651c-12 -10 -29.167 -15 -51.5 -15s-39.333 5 -51 15s-18.667 20.5 -21 31.5s-3.5 25.167 -3.5 42.5s1.16699 31.666 3.5 42.999s9.33301 22 21 32s28.667 15 51 15s39.5 -5 51.5 -15s19.167 -20.667 21.5 -32s3.5 -25.666 3.5 -42.999s-1.16699 -31.5 -3.5 -42.5
s-9.5 -21.5 -21.5 -31.5z" />
    <glyph glyph-name="ring" unicode="&#x2da;" horiz-adv-x="258" 
d="M127 676c27.333 0 41 16.333 41 49s-13.667 49 -41 49c-24.667 0 -37 -16.333 -37 -49s12.333 -49 37 -49zM127 612c-74 0 -111 37.5 -111 112.5s37 112.5 111 112.5c43.333 0 73.333 -11.167 90 -33.5s25 -48.833 25 -79.5s-8.33301 -57 -25 -79s-46.667 -33 -90 -33z
" />
    <glyph glyph-name="ogonek" unicode="&#x2db;" horiz-adv-x="316" 
d="M141 -232c-38 0 -66.667 8.49902 -86 25.499s-29 40.333 -29 70s8.33301 53.5 25 71.5s43.667 38.667 81 62l86 52l29 -43l-85 -53c-22 -13.333 -37 -25.166 -45 -35.499s-12 -21.833 -12 -34.5c0 -29.333 15.167 -44 45.5 -44s56.833 19.667 79.5 59l53 -35
c-34.667 -63.333 -82 -95 -142 -95z" />
    <glyph glyph-name="tilde" unicode="&#x2dc;" horiz-adv-x="394" 
d="M331.5 688c-17 -18 -35.5 -27 -55.5 -27s-45.667 6 -77 18s-52 18 -62 18c-19.333 0 -33.333 -14.667 -42 -44l-75 24c11.333 42 25.5 72 42.5 90s35.5 27 55.5 27s45.833 -6 77.5 -18s52.5 -18 62.5 -18c19.333 0 33.333 14.667 42 44l74 -24
c-11.333 -42 -25.5 -72 -42.5 -90z" />
    <glyph glyph-name="hungarumlaut" unicode="&#x2dd;" horiz-adv-x="532" 
d="M47 620l-45 72l195 133l60 -96zM320 620l-45 72l195 133l60 -96z" />
    <glyph glyph-name="pi" unicode="&#x3c0;" horiz-adv-x="652" 
d="M46 485v87h560v-87h-61v-485h-134v485h-171v-485h-134v485h-60z" />
    <glyph glyph-name="endash" unicode="&#x2013;" horiz-adv-x="564" 
d="M62 272v92h440v-92h-440z" />
    <glyph glyph-name="emdash" unicode="&#x2014;" horiz-adv-x="897" 
d="M62 272v92h773v-92h-773z" />
    <glyph glyph-name="quoteleft" unicode="&#x2018;" horiz-adv-x="274" 
d="M182 622c6.66699 -20 9.99902 -36.999 9.99902 -50.999s-0.666992 -24.833 -2 -32.5s-4 -15.834 -8 -24.501c-7.33301 -16.667 -25.666 -25 -54.999 -25c-47.333 0 -71 26 -71 78c0 81.333 42.333 153.333 127 216l35 -41c-30.667 -22.667 -46 -49 -46 -79
c0 -7.33301 3.33301 -21 10 -41z" />
    <glyph glyph-name="quoteright" unicode="&#x2019;" horiz-adv-x="250" 
d="M92 649.5c-6.66699 19.667 -9.99902 36.666 -9.99902 50.999s0.666992 25.333 2 33s4 15.834 8 24.501c7.33301 16.667 25.666 25 54.999 25c47.333 0 71 -26 71 -78c0 -81.333 -42.333 -153.333 -127 -216l-35 40c30.667 22.667 46 49 46 79
c0 8 -3.33301 21.833 -10 41.5z" />
    <glyph glyph-name="quotesinglbase" unicode="&#x201a;" horiz-adv-x="226" 
d="M55 24.5c-6.66699 19.667 -10.001 35.499 -10.001 47.499s0.666992 21.667 2 29s4 15 8 23c8.66699 16.667 25.334 25 50.001 25s42.5 -4.16699 53.5 -12.5s17.5 -17.166 19.5 -26.499s3 -21.333 3 -36c0 -74 -42.333 -144.667 -127 -212l-35 41
c30.667 29.333 46 55.666 46 78.999c0 8.66699 -3.33301 22.834 -10 42.501z" />
    <glyph glyph-name="quotedblleft" unicode="&#x201c;" horiz-adv-x="455" 
d="M182 622c6.66699 -20 9.99707 -38 9.99707 -54s-1.16699 -29 -3.5 -39s-8.66602 -19.167 -18.999 -27.5s-27.166 -12.5 -50.499 -12.5s-39.666 7.16699 -48.999 21.5s-14 33.166 -14 56.499c0 81.333 42.333 153.333 127 216l35 -41
c-30.667 -27.333 -46 -53.666 -46 -78.999c0 -7.33301 3.33301 -21 10 -41zM362.997 622c6.66699 -20 9.99902 -36.999 9.99902 -50.999s-0.666992 -24.833 -2 -32.5s-3.66602 -15.834 -6.99902 -24.501c-8 -16.667 -26.667 -25 -56 -25c-47.333 0 -71 26 -71 78
c0 81.333 42.333 153.333 127 216l35 -41c-30.667 -22.667 -46 -49 -46 -79c0 -7.33301 3.33301 -21 10 -41z" />
    <glyph glyph-name="quotedblright" unicode="&#x201d;" horiz-adv-x="455" 
d="M273 649.5c-6.66699 19.667 -9.99707 37.667 -9.99707 54s1.16699 29.5 3.5 39.5s8.66602 19.167 18.999 27.5s27.166 12.5 50.499 12.5s39.666 -7.16699 48.999 -21.5s14 -33.166 14 -56.499c0 -81.333 -42.333 -153.333 -127 -216l-35 40
c30.667 27.333 46 53.666 46 78.999c0 8 -3.33301 21.833 -10 41.5zM92.0029 649.5c-6.66699 19.667 -9.99902 36.666 -9.99902 50.999s0.666992 25.333 2 33s4 15.834 8 24.501c7.33301 16.667 25.666 25 54.999 25c47.333 0 71 -26 71 -78
c0 -81.333 -42.333 -153.333 -127 -216l-35 40c30.667 22.667 46 49 46 79c0 8 -3.33301 21.833 -10 41.5z" />
    <glyph glyph-name="quotedblbase" unicode="&#x201e;" horiz-adv-x="407" 
d="M236 22.5c-6.66699 19.667 -9.99707 37.667 -9.99707 54s1.16699 29.5 3.5 39.5s8.66602 19.167 18.999 27.5s27.166 12.5 50.499 12.5s39.666 -7.16699 48.999 -21.5s14 -33.166 14 -56.499c0 -81.333 -42.333 -153.333 -127 -216l-35 40
c30.667 27.333 46 53.666 46 78.999c0 8 -3.33301 21.833 -10 41.5zM55.0029 22.5c-6.66699 19.667 -9.99902 36.667 -9.99902 51s0.666992 25.333 2 33s3.66602 15.5 6.99902 23.5c8 17.333 26.667 26 56 26c47.333 0 71 -26 71 -78c0 -81.333 -42.333 -153.333 -127 -216
l-35 40c30.667 22.667 46 49 46 79c0 8 -3.33301 21.833 -10 41.5z" />
    <glyph glyph-name="dagger" unicode="&#x2020;" horiz-adv-x="472" 
d="M460 572v-106h-54l-105 11l-17 -477h-96l-17 477l-105 -11h-54v106h54l102 -11l-6 169h148l-6 -169l102 11h54z" />
    <glyph glyph-name="daggerdbl" unicode="&#x2021;" horiz-adv-x="472" 
d="M12 158v106h54l114 -12l8 113l-8 112l-114 -11h-54v106h54l108 -11l-12 169h148l-12 -169l108 11h54v-106h-54l-114 11l-8 -112l8 -113l114 12h54v-106h-54l-108 11l12 -169h-148l12 169l-108 -11h-54z" />
    <glyph glyph-name="bullet" unicode="&#x2022;" horiz-adv-x="272" 
d="M191.5 224c-15.667 -6.66699 -35.499 -10.0029 -59.499 -10.0029s-43.667 3.33301 -59 10s-26.333 16.334 -33 29.001c-10.667 20 -16 42.333 -16 67s1 42.834 3 54.501s6.33301 23.834 13 36.501c13.333 25.333 43.666 38 90.999 38c50 0 81 -13 93 -39
c10.667 -20.667 16 -43.167 16 -67.5s-1 -42.166 -3 -53.499s-6.16699 -23.333 -12.5 -36s-17.333 -22.334 -33 -29.001z" />
    <glyph glyph-name="ellipsis" unicode="&#x2026;" horiz-adv-x="734" 
d="M156.5 -1.5c-10.333 -4.33301 -24.835 -6.50293 -43.502 -6.50293s-33.5 4.33301 -44.5 13s-17.667 17.834 -20 27.501s-3.5 21.167 -3.5 34.5s0.666992 23.833 2 31.5s4.33301 15.834 9 24.501c8 17.333 28 26 60 26c33.333 0 54 -8.66699 62 -26
c7.33301 -14 11 -29.167 11 -45.5s-0.666992 -28.166 -2 -35.499s-4.16602 -15.333 -8.49902 -24s-11.666 -15.167 -21.999 -19.5zM406.498 -1.50293c-10.333 -4.33301 -24.835 -6.50293 -43.502 -6.50293s-33.5 4.33301 -44.5 13s-17.667 17.834 -20 27.501
s-3.5 21.167 -3.5 34.5s0.666992 23.833 2 31.5s4.33301 15.834 9 24.501c8 17.333 28 26 60 26c33.333 0 54 -8.66699 62 -26c7.33301 -14 11 -29.167 11 -45.5s-0.666992 -28.166 -2 -35.499s-4.16602 -15.333 -8.49902 -24s-11.666 -15.167 -21.999 -19.5z
M656.496 -1.50586c-10.333 -4.33301 -24.835 -6.50293 -43.502 -6.50293s-33.5 4.33301 -44.5 13s-17.667 17.834 -20 27.501s-3.5 21.167 -3.5 34.5s0.666992 23.833 2 31.5s4.33301 15.834 9 24.501c8 17.333 28 26 60 26c33.333 0 54 -8.66699 62 -26
c7.33301 -14 11 -29.167 11 -45.5s-0.666992 -28.166 -2 -35.499s-4.16602 -15.333 -8.49902 -24s-11.666 -15.167 -21.999 -19.5z" />
    <glyph glyph-name="perthousand" unicode="&#x2030;" horiz-adv-x="1367" 
d="M320 -66l214 801h85l-215 -801h-84zM1150 -8c-62.667 0 -105.834 18.167 -129.501 54.5s-35.5 88.166 -35.5 155.499s11.833 119.5 35.5 156.5s66.834 55.5 129.501 55.5s106 -18.5 130 -55.5s36 -89.167 36 -156.5s-12 -119.166 -36 -155.499s-67.333 -54.5 -130 -54.5z
M1110 105c6.66699 -18.667 20.167 -28 40.5 -28s33.833 9.33301 40.5 28s10 51.334 10 98.001s-3.33301 79.167 -10 97.5s-20.167 27.5 -40.5 27.5s-33.833 -9.16699 -40.5 -27.5s-10 -50.833 -10 -97.5s3.33301 -79.334 10 -98.001zM199 318
c-62.667 0 -105.834 18.167 -129.501 54.5s-35.5 88.166 -35.5 155.499s11.833 119.5 35.5 156.5s66.834 55.5 129.501 55.5s106 -18.5 130 -55.5s36 -89.167 36 -156.5s-12 -119.166 -36 -155.499s-67.333 -54.5 -130 -54.5zM159 431c6.66699 -18.667 20.167 -28 40.5 -28
s33.833 9.33301 40.5 28s10 51.334 10 98.001s-3.33301 79.167 -10 97.5s-20.167 27.5 -40.5 27.5s-33.833 -9.16699 -40.5 -27.5s-10 -50.833 -10 -97.5s3.33301 -79.334 10 -98.001zM750 -8c-62.667 0 -105.834 18.167 -129.501 54.5s-35.5 88.166 -35.5 155.499
s11.833 119.5 35.5 156.5s66.834 55.5 129.501 55.5s106 -18.5 130 -55.5s36 -89.167 36 -156.5s-12 -119.166 -36 -155.499s-67.333 -54.5 -130 -54.5zM710 105c6.66699 -18.667 20.167 -28 40.5 -28s33.833 9.33301 40.5 28s10 51.334 10 98.001s-3.33301 79.167 -10 97.5
s-20.167 27.5 -40.5 27.5s-33.833 -9.16699 -40.5 -27.5s-10 -50.833 -10 -97.5s3.33301 -79.334 10 -98.001z" />
    <glyph glyph-name="guilsinglleft" unicode="&#x2039;" horiz-adv-x="305" 
d="M267 466l-114 -151l114 -151l-65 -64l-180 191v48l180 191z" />
    <glyph glyph-name="guilsinglright" unicode="&#x203a;" horiz-adv-x="305" 
d="M38 164l114 151l-114 151l65 64l180 -191v-48l-180 -191z" />
    <glyph glyph-name="fraction" unicode="&#x2044;" horiz-adv-x="283" 
d="M-8 -66l214 801h85l-215 -801h-84z" />
    <glyph glyph-name="Euro" unicode="&#x20ac;" horiz-adv-x="630" 
d="M29 401v91.001h71c25.333 168 113.333 252 264 252c80 0 139.833 -16.833 179.5 -50.5s60.167 -81.5 61.5 -143.5l-118 -8c0 30.667 -11.5 54.334 -34.5 71.001s-53.333 25 -91 25s-66.667 -12.5 -87 -37.5s-34.166 -61.167 -41.499 -108.5h186v-91h-193v-72h193v-91
h-186c7.33301 -48 21.166 -84.5 41.499 -109.5s49.5 -37.5 87.5 -37.5s68.5 8.66699 91.5 26s34.5 41.666 34.5 72.999l118 -8c-1.33301 -62.667 -22 -111 -62 -145s-100.5 -51 -181.5 -51s-142 22.167 -183 66.5s-67.5 106.166 -79.5 185.499h-71v91h63v72h-63z" />
    <glyph glyph-name="trademark" unicode="&#x2122;" horiz-adv-x="1005" 
d="M910 730v-442h-105v297l-82 -232h-96l-73 222v-287h-106v442h153l75 -242l83 242h151zM55 643v87h320v-87h-107v-355h-106v355h-107z" />
    <glyph glyph-name="Omega" unicode="&#x2126;" horiz-adv-x="797" 
d="M563.5 584c-29 34.667 -83.999 51.999 -164.999 51.999s-136 -17.333 -165 -52s-43.5 -88.667 -43.5 -162c0 -55.333 10 -98.5 30 -129.5s52.667 -52.833 98 -65.5v-227h-242v88h126v80c-98.667 48.667 -148 135 -148 259c0 104 26.5 183 79.5 237s141.167 81 264.5 81
s211.666 -27 264.999 -81s80 -133 80 -237c0 -123.333 -49.333 -209.666 -148 -258.999v-80h126v-88h-242v227c45.333 12.667 78 34.5 98 65.5s30 74.167 30 129.5c0 73.333 -14.5 127.333 -43.5 162z" />
    <glyph glyph-name="partialdiff" unicode="&#x2202;" horiz-adv-x="598" 
d="M562 371c0 -133.333 -23.667 -230.833 -71 -292.5s-126.666 -92.5 -237.999 -92.5c-80.667 0 -137 16.5 -169 49.5s-48 77.5 -48 133.5c0 111.333 23.333 195.333 70 252s124.667 85 234 85c37.333 0 66.666 -10.667 87.999 -32c-10 79.333 -41 151 -93 215l75 75
c101.333 -106.667 152 -237.667 152 -393zM271 85c53.333 0 91.667 18.5 115 55.5s35 90.667 35 161s-32.667 105.5 -98 105.5c-53.333 0 -91.833 -18.667 -115.5 -56s-35.5 -91 -35.5 -161s33 -105 99 -105z" />
    <glyph glyph-name="Delta" unicode="&#x2206;" horiz-adv-x="606" 
d="M229 730h148l259 -730h-666zM303 580l-168 -492h336z" />
    <glyph glyph-name="product" unicode="&#x220f;" horiz-adv-x="760" 
d="M54 642v88h652v-88h-66v-815h-134v815h-253v-815h-134v815h-65z" />
    <glyph glyph-name="summation" unicode="&#x2211;" horiz-adv-x="596" 
d="M39 730h529v-88h-389l243 -371l-238 -357h384v-87h-529v87l238 357l-238 371v88z" />
    <glyph glyph-name="minus" unicode="&#x2212;" 
d="M86 272v92h408v-92h-408z" />
    <glyph glyph-name="radical" unicode="&#x221a;" horiz-adv-x="571" 
d="M629 730v-87h-138l-192 -643h-148l-159 437h135l93 -274l162 567h247z" />
    <glyph glyph-name="infinity" unicode="&#x221e;" horiz-adv-x="606" 
d="M63 467.5c26 27.667 66.167 41.5 120.5 41.5s93.5 -18 117.5 -54c23.333 36 63 54 119 54s97 -13.833 123 -41.5s39 -77.334 39 -149.001s-13 -121.334 -39 -149.001s-66.333 -41.5 -121 -41.5s-94 18 -118 54c-24 -36 -63.667 -54 -119 -54s-96 13.833 -122 41.5
s-39 77.334 -39 149.001s13 121.334 39 149.001zM414 232c24 0 41.667 5.99902 53 17.999s17 34.667 17 68s-5.66699 56 -17 68s-27.833 18 -49.5 18s-37.667 -6.66699 -48 -20s-17.833 -32.666 -22.5 -57.999l-7 -36c14 -38.667 38.667 -58 74 -58zM237.5 386.999
c-13 11.333 -29.833 17 -50.5 17s-36.667 -6 -48 -18s-17 -34.667 -17 -68s5.66699 -56 17 -68s28 -18 50 -18s38 6.83301 48 20.5s17.333 33.5 22 59.5l6 33c-5.33301 16.667 -14.5 30.667 -27.5 42z" />
    <glyph glyph-name="integral" unicode="&#x222b;" horiz-adv-x="476" 
d="M174 -33l0.000976562 547.999c0 77.333 17 134.833 51 172.5s87.667 56.5 161 56.5c55.333 0 102.666 -12.333 141.999 -37l-39 -94c-26 16.667 -54.667 25 -86 25c-62 0 -93 -41 -93 -123v-548c0 -77.333 -16.833 -134.666 -50.5 -171.999s-87.167 -56 -160.5 -56
c-54 0 -101.333 12.333 -142 37l39 94c24.667 -16.667 53.667 -25 87 -25c60.667 0 91 40.667 91 122z" />
    <glyph glyph-name="approxequal" unicode="&#x2248;" 
d="M86 464c22.667 -16 49.5 -24 80.5 -24s72 7.16699 123 21.5s91.667 21.5 122 21.5s57.833 -6.33301 82.5 -19v-92c-25.333 14 -53 21 -83 21s-70.5 -7.16699 -121.5 -21.5s-91.5 -21.5 -121.5 -21.5s-57.333 7.33301 -82 22v92zM86 264c22.667 -16 49.5 -24 80.5 -24
s72 7.16699 123 21.5s91.667 21.5 122 21.5s57.833 -6.33301 82.5 -19v-92c-25.333 14 -53 21 -83 21s-70.5 -7.16699 -121.5 -21.5s-91.5 -21.5 -121.5 -21.5s-57.333 7.33301 -82 22v92z" />
    <glyph glyph-name="notequal" unicode="&#x2260;" 
d="M84 380v92h200l71 263h85l-71 -263h123v-92h-148l-33 -124h181v-92h-206l-61 -230h-84l61 230h-118v92h143l33 124h-176z" />
    <glyph glyph-name="lessequal" unicode="&#x2264;" 
d="M89 329v116l402 172v-102l-318 -128l318 -128v-102zM86 0v92h408v-92h-408z" />
    <glyph glyph-name="greaterequal" unicode="&#x2265;" 
d="M491 445v-116l-402 -172v102l317 128l-317 128v102zM86 0v92h408v-92h-408z" />
    <glyph glyph-name="lozenge" unicode="&#x25ca;" horiz-adv-x="556" 
d="M204 770h148l186 -435l-186 -435h-148l-186 435zM278 26l125 309l-125 309l-125 -309z" />
    <glyph glyph-name="apple" unicode="&#xf8ff;" horiz-adv-x="907" 
d="M581 -89l-22.999 0.996094c-9.33301 0 -19.833 -4 -31.5 -12s-20.5 -12 -26.5 -12l-46 10c-5.33301 0 -13.166 -2 -23.499 -6s-18.333 -6 -24 -6s-13.834 4.16699 -24.501 12.5s-20.334 12.5 -29.001 12.5l-24 -2c-10 0 -21 5.66699 -33 17l-18 19
c-8 4 -16.333 6.33301 -25 7s-16 2.83398 -22 6.50098s-11.333 11.334 -16 23.001s-8.83398 19 -12.501 22s-10.167 6.33301 -19.5 10s-16 8.5 -20 14.5c-3.33301 6 -5.66602 13.833 -6.99902 23.5s-3.33301 16.667 -6 21s-7.33398 8.83301 -14.001 13.5
c-14.667 12 -22 24.667 -22 38l3 25c0 6 -4.16699 14.833 -12.5 26.5s-12.5 20.5 -12.5 26.5s2 13.833 6 23.5s6 17.334 6 23.001s-2 12.834 -6 21.501s-6 16 -6 22s4.16699 15.833 12.5 29.5s12.5 23.5 12.5 29.5l-1 25c0 10 5.5 19.833 16.5 29.5s17.333 16.167 19 19.5
s3.16699 10.333 4.5 21s3.33301 18 6 22s9.16699 8 19.5 12s17.166 7.66699 20.499 11s7.33301 10.166 12 20.499s9.16699 17.333 13.5 21s12.833 6.83398 25.5 9.50098s20.834 5 24.501 7s10.5 8.66699 20.5 20s19.667 17.333 29 18l26 -2
c8.66699 0 18.167 3.83301 28.5 11.5s19.166 11.5 26.499 11.5l44 -12l45 12c8.66699 0 18.334 -4.16699 29.001 -12.5s20 -12.5 28 -12.5l28 3c10.667 0 20.334 -5.5 29.001 -16.5s15.167 -17.667 19.5 -20s11.5 -4.5 21.5 -6.5s17.5 -4.66699 22.5 -8
s9.16699 -9.66602 12.5 -18.999s6.83301 -15.666 10.5 -18.999s12.167 -8.5 25.5 -15.5s21.5 -13.167 24.5 -18.5s4.66699 -13.333 5 -24s1.33301 -17.5 3 -20.5s8.16699 -9.33301 19.5 -19s17 -19.834 17 -30.501l-1 -25c0 -8.66699 4 -19.167 12 -31.5s12 -21.5 12 -27.5
s-1.83301 -13.333 -5.5 -22s-5.5 -15.334 -5.5 -20.001s1.83301 -11.834 5.5 -21.501s5.33398 -17.167 5.00098 -22.5s-4.5 -12.166 -12.5 -20.499s-12 -17.166 -12 -26.499l2 -32c0 -10.667 -5.33301 -20.334 -16 -29.001s-16.834 -14.667 -18.501 -18s-4 -11.333 -7 -24
s-6.33301 -21.167 -10 -25.5s-9.66699 -8.33301 -18 -12s-14.166 -7.16699 -17.499 -10.5s-8 -10.5 -14 -21.5s-11.333 -18.167 -16 -21.5s-12.834 -6.5 -24.501 -9.5s-19.167 -5.5 -22.5 -7.5s-9.5 -7.5 -18.5 -16.5s-18.5 -13.5 -28.5 -13.5zM454.001 -6.00391
l32.9932 -6.99707c4 0 9.66699 2.33301 17 7c10 6.66699 19 10 27 10l15 -1c8 0 15 3.33301 21 10s10.167 10.667 12.5 12s7.83301 3.16602 16.5 5.49902s14.834 4.83301 18.501 7.5s7.66699 7.83398 12 15.501s7.66602 12.667 9.99902 15s6.5 4.83301 12.5 7.5
s10.333 5.5 13 8.5s5 9.16699 7 18.5s3.83301 15.333 5.5 18s6.16699 7 13.5 13s11 13.667 11 23l-1 20c0 7.33301 2.83301 14.166 8.5 20.499s8.83398 11.5 9.50098 15.5l-8 32l8 28c0 5.33301 -3 12.666 -9 21.999s-9 17 -9 23l1 17c0 8 -4 15.333 -12 22
s-12.667 11.334 -14 14.001s-2.16602 7.83398 -2.49902 15.501s-1.5 13.334 -3.5 17.001s-7.83301 8 -17.5 13s-15.834 8.83301 -18.501 11.5s-5.33398 7.33398 -8.00098 14.001s-5.66699 11.334 -9 14.001s-8.66602 4.66699 -15.999 6s-12.666 2.83301 -15.999 4.5
s-8 6.5 -14 14.5s-13 12 -21 12l-20 -2c-6 0 -12.667 3 -20 9s-14.333 9 -21 9l-33 -9l-32 9c-5.33301 0 -12 -2.83301 -20 -8.5s-15.333 -8.5 -22 -8.5l-17 1c-7.33301 0 -14.5 -4.16699 -21.5 -12.5s-12 -13.333 -15 -15s-8.83301 -3.33398 -17.5 -5.00098
s-14.667 -3.83398 -18 -6.50098s-6.66602 -7.66699 -9.99902 -15s-6.33301 -12.333 -9 -15s-7.5 -5.33398 -14.5 -8.00098s-11.833 -5.66699 -14.5 -9c-1.33301 -2.66699 -2.66602 -7.83398 -3.99902 -15.501s-2.66602 -12.834 -3.99902 -15.501s-6 -7.5 -14 -14.5
s-12 -14.167 -12 -21.5l1 -16c0 -5.33301 -2.83301 -13 -8.5 -23s-8.5 -17.667 -8.5 -23l8 -30l-8 -33c0 -5.33301 2.83301 -12.166 8.5 -20.499s8.5 -15.166 8.5 -20.499l-2 -16c0 -7.33301 4.16699 -14.833 12.5 -22.5s13.166 -12.834 14.499 -15.501s2.5 -7.5 3.5 -14.5
s2.83301 -12.667 5.5 -17s7.33398 -7.83301 14.001 -10.5s11.334 -5.16699 14.001 -7.5s5.83398 -7.83301 9.50098 -16.5s7.5 -14.334 11.5 -17.001s9.16699 -4 15.5 -4s11.5 -1 15.5 -3s9.83301 -7.16699 17.5 -15.5s15.167 -12.5 22.5 -12.5l15 1
c6.66699 0 14 -2.83301 22 -8.5s14 -8.83398 18 -9.50098zM453.994 416.999c46.667 0 86.667 -16.5 120 -49.5s50 -73.167 50 -120.5s-16.667 -87.5 -50 -120.5s-73.333 -49.5 -120 -49.5s-86.667 16.5 -120 49.5s-50 73.167 -50 120.5s16.667 87.5 50 120.5
s73.333 49.5 120 49.5zM496.994 291.999h52v68h-191v-68h54v-175h85v175z" />
    <glyph glyph-name=".null" horiz-adv-x="0" 
 />
    <glyph glyph-name="nonmarkingreturn" horiz-adv-x="333" 
 />
    </font>
</defs>
</svg>
